G04 #@! TF.FileFunction,Legend,Bot*
%FSLAX46Y46*%
G04 Gerber Fmt 4.6, Leading zero omitted, Abs format (unit mm)*
G04 Created by KiCad (PCBNEW 4.0.5+dfsg1-4) date Tue Apr 17 10:54:11 2018*
%MOMM*%
%LPD*%
G01*
G04 APERTURE LIST*
%ADD10C,0.100000*%
%ADD11C,0.127000*%
%ADD12C,0.190500*%
%ADD13C,0.254000*%
%ADD14C,0.304800*%
%ADD15C,0.150000*%
%ADD16C,0.120000*%
G04 APERTURE END LIST*
D10*
D11*
X156566810Y-78993999D02*
X156566810Y-79042380D01*
X156591000Y-79090761D01*
X156615190Y-79114952D01*
X156663571Y-79139142D01*
X156760333Y-79163333D01*
X156881286Y-79163333D01*
X156978048Y-79139142D01*
X157026429Y-79114952D01*
X157050619Y-79090761D01*
X157074810Y-79042380D01*
X157074810Y-78993999D01*
X157050619Y-78945618D01*
X157026429Y-78921428D01*
X156978048Y-78897237D01*
X156881286Y-78873047D01*
X156760333Y-78873047D01*
X156663571Y-78897237D01*
X156615190Y-78921428D01*
X156591000Y-78945618D01*
X156566810Y-78993999D01*
X156736143Y-79598762D02*
X157074810Y-79598762D01*
X156542619Y-79477809D02*
X156905476Y-79356857D01*
X156905476Y-79671333D01*
X156542619Y-80227715D02*
X157195762Y-79792286D01*
X157074810Y-80663143D02*
X157074810Y-80372857D01*
X157074810Y-80518000D02*
X156566810Y-80518000D01*
X156639381Y-80469619D01*
X156687762Y-80421238D01*
X156711952Y-80372857D01*
X156784524Y-80953429D02*
X156760333Y-80905048D01*
X156736143Y-80880857D01*
X156687762Y-80856667D01*
X156663571Y-80856667D01*
X156615190Y-80880857D01*
X156591000Y-80905048D01*
X156566810Y-80953429D01*
X156566810Y-81050191D01*
X156591000Y-81098572D01*
X156615190Y-81122762D01*
X156663571Y-81146953D01*
X156687762Y-81146953D01*
X156736143Y-81122762D01*
X156760333Y-81098572D01*
X156784524Y-81050191D01*
X156784524Y-80953429D01*
X156808714Y-80905048D01*
X156832905Y-80880857D01*
X156881286Y-80856667D01*
X156978048Y-80856667D01*
X157026429Y-80880857D01*
X157050619Y-80905048D01*
X157074810Y-80953429D01*
X157074810Y-81050191D01*
X157050619Y-81098572D01*
X157026429Y-81122762D01*
X156978048Y-81146953D01*
X156881286Y-81146953D01*
X156832905Y-81122762D01*
X156808714Y-81098572D01*
X156784524Y-81050191D01*
D12*
X176112714Y-79520143D02*
X175749857Y-79266143D01*
X176112714Y-79084715D02*
X175350714Y-79084715D01*
X175350714Y-79375000D01*
X175387000Y-79447572D01*
X175423286Y-79483857D01*
X175495857Y-79520143D01*
X175604714Y-79520143D01*
X175677286Y-79483857D01*
X175713571Y-79447572D01*
X175749857Y-79375000D01*
X175749857Y-79084715D01*
X176076429Y-80137000D02*
X176112714Y-80064429D01*
X176112714Y-79919286D01*
X176076429Y-79846715D01*
X176003857Y-79810429D01*
X175713571Y-79810429D01*
X175641000Y-79846715D01*
X175604714Y-79919286D01*
X175604714Y-80064429D01*
X175641000Y-80137000D01*
X175713571Y-80173286D01*
X175786143Y-80173286D01*
X175858714Y-79810429D01*
X175604714Y-80427286D02*
X176112714Y-80608715D01*
X175604714Y-80790143D01*
X175423286Y-81044143D02*
X175387000Y-81080429D01*
X175350714Y-81153000D01*
X175350714Y-81334429D01*
X175387000Y-81407000D01*
X175423286Y-81443286D01*
X175495857Y-81479571D01*
X175568429Y-81479571D01*
X175677286Y-81443286D01*
X176112714Y-81007857D01*
X176112714Y-81479571D01*
D13*
X176796093Y-83517619D02*
X176796093Y-84340095D01*
X176747712Y-84436857D01*
X176699331Y-84485238D01*
X176602569Y-84533619D01*
X176409046Y-84533619D01*
X176312284Y-84485238D01*
X176263903Y-84436857D01*
X176215522Y-84340095D01*
X176215522Y-83517619D01*
X175731712Y-83856286D02*
X175731712Y-84533619D01*
X175731712Y-83953048D02*
X175683331Y-83904667D01*
X175586569Y-83856286D01*
X175441427Y-83856286D01*
X175344665Y-83904667D01*
X175296284Y-84001429D01*
X175296284Y-84533619D01*
X174812474Y-84533619D02*
X174812474Y-83856286D01*
X174812474Y-84049810D02*
X174764093Y-83953048D01*
X174715712Y-83904667D01*
X174618950Y-83856286D01*
X174522189Y-83856286D01*
X173796475Y-84485238D02*
X173893237Y-84533619D01*
X174086760Y-84533619D01*
X174183522Y-84485238D01*
X174231903Y-84388476D01*
X174231903Y-84001429D01*
X174183522Y-83904667D01*
X174086760Y-83856286D01*
X173893237Y-83856286D01*
X173796475Y-83904667D01*
X173748094Y-84001429D01*
X173748094Y-84098190D01*
X174231903Y-84194952D01*
X172877237Y-83856286D02*
X172877237Y-84678762D01*
X172925618Y-84775524D01*
X172973999Y-84823905D01*
X173070760Y-84872286D01*
X173215903Y-84872286D01*
X173312665Y-84823905D01*
X172877237Y-84485238D02*
X172973999Y-84533619D01*
X173167522Y-84533619D01*
X173264284Y-84485238D01*
X173312665Y-84436857D01*
X173361046Y-84340095D01*
X173361046Y-84049810D01*
X173312665Y-83953048D01*
X173264284Y-83904667D01*
X173167522Y-83856286D01*
X172973999Y-83856286D01*
X172877237Y-83904667D01*
X171957999Y-83856286D02*
X171957999Y-84533619D01*
X172393427Y-83856286D02*
X172393427Y-84388476D01*
X172345046Y-84485238D01*
X172248284Y-84533619D01*
X172103142Y-84533619D01*
X172006380Y-84485238D01*
X171957999Y-84436857D01*
X171329046Y-84533619D02*
X171425808Y-84485238D01*
X171474189Y-84388476D01*
X171474189Y-83517619D01*
X170506571Y-84533619D02*
X170506571Y-84001429D01*
X170554952Y-83904667D01*
X170651714Y-83856286D01*
X170845237Y-83856286D01*
X170941999Y-83904667D01*
X170506571Y-84485238D02*
X170603333Y-84533619D01*
X170845237Y-84533619D01*
X170941999Y-84485238D01*
X170990380Y-84388476D01*
X170990380Y-84291714D01*
X170941999Y-84194952D01*
X170845237Y-84146571D01*
X170603333Y-84146571D01*
X170506571Y-84098190D01*
X170167904Y-83856286D02*
X169780856Y-83856286D01*
X170022761Y-83517619D02*
X170022761Y-84388476D01*
X169974380Y-84485238D01*
X169877618Y-84533619D01*
X169780856Y-84533619D01*
X169055143Y-84485238D02*
X169151905Y-84533619D01*
X169345428Y-84533619D01*
X169442190Y-84485238D01*
X169490571Y-84388476D01*
X169490571Y-84001429D01*
X169442190Y-83904667D01*
X169345428Y-83856286D01*
X169151905Y-83856286D01*
X169055143Y-83904667D01*
X169006762Y-84001429D01*
X169006762Y-84098190D01*
X169490571Y-84194952D01*
X168135905Y-84533619D02*
X168135905Y-83517619D01*
X168135905Y-84485238D02*
X168232667Y-84533619D01*
X168426190Y-84533619D01*
X168522952Y-84485238D01*
X168571333Y-84436857D01*
X168619714Y-84340095D01*
X168619714Y-84049810D01*
X168571333Y-83953048D01*
X168522952Y-83904667D01*
X168426190Y-83856286D01*
X168232667Y-83856286D01*
X168135905Y-83904667D01*
X166878000Y-84533619D02*
X166878000Y-83517619D01*
X166490953Y-83517619D01*
X166394191Y-83566000D01*
X166345810Y-83614381D01*
X166297429Y-83711143D01*
X166297429Y-83856286D01*
X166345810Y-83953048D01*
X166394191Y-84001429D01*
X166490953Y-84049810D01*
X166878000Y-84049810D01*
X165716857Y-84533619D02*
X165813619Y-84485238D01*
X165862000Y-84436857D01*
X165910381Y-84340095D01*
X165910381Y-84049810D01*
X165862000Y-83953048D01*
X165813619Y-83904667D01*
X165716857Y-83856286D01*
X165571715Y-83856286D01*
X165474953Y-83904667D01*
X165426572Y-83953048D01*
X165378191Y-84049810D01*
X165378191Y-84340095D01*
X165426572Y-84436857D01*
X165474953Y-84485238D01*
X165571715Y-84533619D01*
X165716857Y-84533619D01*
X165039524Y-83856286D02*
X164846000Y-84533619D01*
X164652477Y-84049810D01*
X164458953Y-84533619D01*
X164265429Y-83856286D01*
X163491334Y-84485238D02*
X163588096Y-84533619D01*
X163781619Y-84533619D01*
X163878381Y-84485238D01*
X163926762Y-84388476D01*
X163926762Y-84001429D01*
X163878381Y-83904667D01*
X163781619Y-83856286D01*
X163588096Y-83856286D01*
X163491334Y-83904667D01*
X163442953Y-84001429D01*
X163442953Y-84098190D01*
X163926762Y-84194952D01*
X163007524Y-84533619D02*
X163007524Y-83856286D01*
X163007524Y-84049810D02*
X162959143Y-83953048D01*
X162910762Y-83904667D01*
X162814000Y-83856286D01*
X162717239Y-83856286D01*
X162426953Y-84485238D02*
X162330191Y-84533619D01*
X162136667Y-84533619D01*
X162039906Y-84485238D01*
X161991525Y-84388476D01*
X161991525Y-84340095D01*
X162039906Y-84243333D01*
X162136667Y-84194952D01*
X162281810Y-84194952D01*
X162378572Y-84146571D01*
X162426953Y-84049810D01*
X162426953Y-84001429D01*
X162378572Y-83904667D01*
X162281810Y-83856286D01*
X162136667Y-83856286D01*
X162039906Y-83904667D01*
X161120668Y-83856286D02*
X161120668Y-84533619D01*
X161556096Y-83856286D02*
X161556096Y-84388476D01*
X161507715Y-84485238D01*
X161410953Y-84533619D01*
X161265811Y-84533619D01*
X161169049Y-84485238D01*
X161120668Y-84436857D01*
X160636858Y-83856286D02*
X160636858Y-84872286D01*
X160636858Y-83904667D02*
X160540096Y-83856286D01*
X160346573Y-83856286D01*
X160249811Y-83904667D01*
X160201430Y-83953048D01*
X160153049Y-84049810D01*
X160153049Y-84340095D01*
X160201430Y-84436857D01*
X160249811Y-84485238D01*
X160346573Y-84533619D01*
X160540096Y-84533619D01*
X160636858Y-84485238D01*
X159717620Y-83856286D02*
X159717620Y-84872286D01*
X159717620Y-83904667D02*
X159620858Y-83856286D01*
X159427335Y-83856286D01*
X159330573Y-83904667D01*
X159282192Y-83953048D01*
X159233811Y-84049810D01*
X159233811Y-84340095D01*
X159282192Y-84436857D01*
X159330573Y-84485238D01*
X159427335Y-84533619D01*
X159620858Y-84533619D01*
X159717620Y-84485238D01*
X158653239Y-84533619D02*
X158750001Y-84485238D01*
X158798382Y-84388476D01*
X158798382Y-83517619D01*
X158362954Y-83856286D02*
X158121049Y-84533619D01*
X157879145Y-83856286D02*
X158121049Y-84533619D01*
X158217811Y-84775524D01*
X158266192Y-84823905D01*
X158362954Y-84872286D01*
D14*
X176892858Y-75619429D02*
X176022001Y-75619429D01*
X176457430Y-77143429D02*
X176457430Y-75619429D01*
X175514001Y-77143429D02*
X175514001Y-76127429D01*
X175514001Y-75619429D02*
X175586572Y-75692000D01*
X175514001Y-75764571D01*
X175441429Y-75692000D01*
X175514001Y-75619429D01*
X175514001Y-75764571D01*
X174788287Y-76127429D02*
X174788287Y-77143429D01*
X174788287Y-76272571D02*
X174715715Y-76200000D01*
X174570573Y-76127429D01*
X174352858Y-76127429D01*
X174207715Y-76200000D01*
X174135144Y-76345143D01*
X174135144Y-77143429D01*
X173554573Y-76127429D02*
X173191716Y-77143429D01*
X172828858Y-76127429D02*
X173191716Y-77143429D01*
X173336858Y-77506286D01*
X173409430Y-77578857D01*
X173554573Y-77651429D01*
X171740287Y-76345143D02*
X171522573Y-76417714D01*
X171450001Y-76490286D01*
X171377430Y-76635429D01*
X171377430Y-76853143D01*
X171450001Y-76998286D01*
X171522573Y-77070857D01*
X171667715Y-77143429D01*
X172248287Y-77143429D01*
X172248287Y-75619429D01*
X171740287Y-75619429D01*
X171595144Y-75692000D01*
X171522573Y-75764571D01*
X171450001Y-75909714D01*
X171450001Y-76054857D01*
X171522573Y-76200000D01*
X171595144Y-76272571D01*
X171740287Y-76345143D01*
X172248287Y-76345143D01*
X170506573Y-77143429D02*
X170651715Y-77070857D01*
X170724287Y-76998286D01*
X170796858Y-76853143D01*
X170796858Y-76417714D01*
X170724287Y-76272571D01*
X170651715Y-76200000D01*
X170506573Y-76127429D01*
X170288858Y-76127429D01*
X170143715Y-76200000D01*
X170071144Y-76272571D01*
X169998573Y-76417714D01*
X169998573Y-76853143D01*
X170071144Y-76998286D01*
X170143715Y-77070857D01*
X170288858Y-77143429D01*
X170506573Y-77143429D01*
X168692287Y-77143429D02*
X168692287Y-76345143D01*
X168764858Y-76200000D01*
X168910001Y-76127429D01*
X169200287Y-76127429D01*
X169345430Y-76200000D01*
X168692287Y-77070857D02*
X168837430Y-77143429D01*
X169200287Y-77143429D01*
X169345430Y-77070857D01*
X169418001Y-76925714D01*
X169418001Y-76780571D01*
X169345430Y-76635429D01*
X169200287Y-76562857D01*
X168837430Y-76562857D01*
X168692287Y-76490286D01*
X167966573Y-77143429D02*
X167966573Y-76127429D01*
X167966573Y-76417714D02*
X167894001Y-76272571D01*
X167821430Y-76200000D01*
X167676287Y-76127429D01*
X167531144Y-76127429D01*
X166370001Y-77143429D02*
X166370001Y-75619429D01*
X166370001Y-77070857D02*
X166515144Y-77143429D01*
X166805430Y-77143429D01*
X166950572Y-77070857D01*
X167023144Y-76998286D01*
X167095715Y-76853143D01*
X167095715Y-76417714D01*
X167023144Y-76272571D01*
X166950572Y-76200000D01*
X166805430Y-76127429D01*
X166515144Y-76127429D01*
X166370001Y-76200000D01*
X165426573Y-76272571D02*
X165571715Y-76200000D01*
X165644287Y-76127429D01*
X165716858Y-75982286D01*
X165716858Y-75909714D01*
X165644287Y-75764571D01*
X165571715Y-75692000D01*
X165426573Y-75619429D01*
X165136287Y-75619429D01*
X164991144Y-75692000D01*
X164918573Y-75764571D01*
X164846001Y-75909714D01*
X164846001Y-75982286D01*
X164918573Y-76127429D01*
X164991144Y-76200000D01*
X165136287Y-76272571D01*
X165426573Y-76272571D01*
X165571715Y-76345143D01*
X165644287Y-76417714D01*
X165716858Y-76562857D01*
X165716858Y-76853143D01*
X165644287Y-76998286D01*
X165571715Y-77070857D01*
X165426573Y-77143429D01*
X165136287Y-77143429D01*
X164991144Y-77070857D01*
X164918573Y-76998286D01*
X164846001Y-76853143D01*
X164846001Y-76562857D01*
X164918573Y-76417714D01*
X164991144Y-76345143D01*
X165136287Y-76272571D01*
X163539715Y-76127429D02*
X163539715Y-77143429D01*
X163902572Y-75546857D02*
X164265429Y-76635429D01*
X163322001Y-76635429D01*
X161943143Y-77143429D02*
X162814000Y-77143429D01*
X162378572Y-77143429D02*
X162378572Y-75619429D01*
X162523715Y-75837143D01*
X162668857Y-75982286D01*
X162814000Y-76054857D01*
X160999714Y-75619429D02*
X160854571Y-75619429D01*
X160709428Y-75692000D01*
X160636857Y-75764571D01*
X160564286Y-75909714D01*
X160491714Y-76200000D01*
X160491714Y-76562857D01*
X160564286Y-76853143D01*
X160636857Y-76998286D01*
X160709428Y-77070857D01*
X160854571Y-77143429D01*
X160999714Y-77143429D01*
X161144857Y-77070857D01*
X161217428Y-76998286D01*
X161290000Y-76853143D01*
X161362571Y-76562857D01*
X161362571Y-76200000D01*
X161290000Y-75909714D01*
X161217428Y-75764571D01*
X161144857Y-75692000D01*
X160999714Y-75619429D01*
X159548285Y-75619429D02*
X159403142Y-75619429D01*
X159257999Y-75692000D01*
X159185428Y-75764571D01*
X159112857Y-75909714D01*
X159040285Y-76200000D01*
X159040285Y-76562857D01*
X159112857Y-76853143D01*
X159185428Y-76998286D01*
X159257999Y-77070857D01*
X159403142Y-77143429D01*
X159548285Y-77143429D01*
X159693428Y-77070857D01*
X159765999Y-76998286D01*
X159838571Y-76853143D01*
X159911142Y-76562857D01*
X159911142Y-76200000D01*
X159838571Y-75909714D01*
X159765999Y-75764571D01*
X159693428Y-75692000D01*
X159548285Y-75619429D01*
D15*
X159775000Y-79010000D02*
X159775000Y-81010000D01*
X157725000Y-81010000D02*
X157725000Y-79010000D01*
X158750000Y-87630000D02*
X173990000Y-87630000D01*
X173990000Y-87630000D02*
X173990000Y-85090000D01*
X173990000Y-85090000D02*
X158750000Y-85090000D01*
X155930000Y-87910000D02*
X157480000Y-87910000D01*
X158750000Y-87630000D02*
X158750000Y-85090000D01*
X157480000Y-84810000D02*
X155930000Y-84810000D01*
X155930000Y-84810000D02*
X155930000Y-87910000D01*
X158750000Y-74930000D02*
X173990000Y-74930000D01*
X173990000Y-74930000D02*
X173990000Y-72390000D01*
X173990000Y-72390000D02*
X158750000Y-72390000D01*
X155930000Y-75210000D02*
X157480000Y-75210000D01*
X158750000Y-74930000D02*
X158750000Y-72390000D01*
X157480000Y-72110000D02*
X155930000Y-72110000D01*
X155930000Y-72110000D02*
X155930000Y-75210000D01*
X172050000Y-79135000D02*
X170850000Y-79135000D01*
X170850000Y-80885000D02*
X172050000Y-80885000D01*
X178216000Y-75297000D02*
X179416000Y-75297000D01*
X179416000Y-73547000D02*
X178216000Y-73547000D01*
X177384000Y-85485000D02*
X176184000Y-85485000D01*
X176184000Y-87235000D02*
X177384000Y-87235000D01*
D16*
X164340000Y-81590000D02*
X164340000Y-80660000D01*
X164340000Y-78430000D02*
X164340000Y-79360000D01*
X164340000Y-78430000D02*
X167500000Y-78430000D01*
X164340000Y-81590000D02*
X165800000Y-81590000D01*
D15*
X159107143Y-79843334D02*
X159154762Y-79795715D01*
X159202381Y-79652858D01*
X159202381Y-79557620D01*
X159154762Y-79414762D01*
X159059524Y-79319524D01*
X158964286Y-79271905D01*
X158773810Y-79224286D01*
X158630952Y-79224286D01*
X158440476Y-79271905D01*
X158345238Y-79319524D01*
X158250000Y-79414762D01*
X158202381Y-79557620D01*
X158202381Y-79652858D01*
X158250000Y-79795715D01*
X158297619Y-79843334D01*
X159202381Y-80795715D02*
X159202381Y-80224286D01*
X159202381Y-80510000D02*
X158202381Y-80510000D01*
X158345238Y-80414762D01*
X158440476Y-80319524D01*
X158488095Y-80224286D01*
X171616666Y-80462381D02*
X171950000Y-79986190D01*
X172188095Y-80462381D02*
X172188095Y-79462381D01*
X171807142Y-79462381D01*
X171711904Y-79510000D01*
X171664285Y-79557619D01*
X171616666Y-79652857D01*
X171616666Y-79795714D01*
X171664285Y-79890952D01*
X171711904Y-79938571D01*
X171807142Y-79986190D01*
X172188095Y-79986190D01*
X170664285Y-80462381D02*
X171235714Y-80462381D01*
X170950000Y-80462381D02*
X170950000Y-79462381D01*
X171045238Y-79605238D01*
X171140476Y-79700476D01*
X171235714Y-79748095D01*
X178982666Y-74874381D02*
X179316000Y-74398190D01*
X179554095Y-74874381D02*
X179554095Y-73874381D01*
X179173142Y-73874381D01*
X179077904Y-73922000D01*
X179030285Y-73969619D01*
X178982666Y-74064857D01*
X178982666Y-74207714D01*
X179030285Y-74302952D01*
X179077904Y-74350571D01*
X179173142Y-74398190D01*
X179554095Y-74398190D01*
X178601714Y-73969619D02*
X178554095Y-73922000D01*
X178458857Y-73874381D01*
X178220761Y-73874381D01*
X178125523Y-73922000D01*
X178077904Y-73969619D01*
X178030285Y-74064857D01*
X178030285Y-74160095D01*
X178077904Y-74302952D01*
X178649333Y-74874381D01*
X178030285Y-74874381D01*
X176950666Y-86812381D02*
X177284000Y-86336190D01*
X177522095Y-86812381D02*
X177522095Y-85812381D01*
X177141142Y-85812381D01*
X177045904Y-85860000D01*
X176998285Y-85907619D01*
X176950666Y-86002857D01*
X176950666Y-86145714D01*
X176998285Y-86240952D01*
X177045904Y-86288571D01*
X177141142Y-86336190D01*
X177522095Y-86336190D01*
X176617333Y-85812381D02*
X175998285Y-85812381D01*
X176331619Y-86193333D01*
X176188761Y-86193333D01*
X176093523Y-86240952D01*
X176045904Y-86288571D01*
X175998285Y-86383810D01*
X175998285Y-86621905D01*
X176045904Y-86717143D01*
X176093523Y-86764762D01*
X176188761Y-86812381D01*
X176474476Y-86812381D01*
X176569714Y-86764762D01*
X176617333Y-86717143D01*
X167131905Y-79462381D02*
X167131905Y-80271905D01*
X167084286Y-80367143D01*
X167036667Y-80414762D01*
X166941429Y-80462381D01*
X166750952Y-80462381D01*
X166655714Y-80414762D01*
X166608095Y-80367143D01*
X166560476Y-80271905D01*
X166560476Y-79462381D01*
X165560476Y-80462381D02*
X166131905Y-80462381D01*
X165846191Y-80462381D02*
X165846191Y-79462381D01*
X165941429Y-79605238D01*
X166036667Y-79700476D01*
X166131905Y-79748095D01*
M02*
