G04 #@! TF.FileFunction,Copper,L1,Top,Signal*
%FSLAX46Y46*%
G04 Gerber Fmt 4.6, Leading zero omitted, Abs format (unit mm)*
G04 Created by KiCad (PCBNEW 4.0.5+dfsg1-4) date Tue Apr 17 10:54:11 2018*
%MOMM*%
%LPD*%
G01*
G04 APERTURE LIST*
%ADD10C,0.100000*%
%ADD11R,1.600000X2.000000*%
%ADD12R,1.198880X1.198880*%
%ADD13R,1.727200X2.032000*%
%ADD14O,1.727200X2.032000*%
%ADD15R,1.727200X1.727200*%
%ADD16O,1.727200X1.727200*%
%ADD17R,0.600000X1.500000*%
%ADD18C,0.600000*%
%ADD19C,0.250000*%
%ADD20C,0.254000*%
G04 APERTURE END LIST*
D10*
D11*
X158750000Y-82010000D03*
X158750000Y-78010000D03*
D12*
X178020980Y-73660000D03*
X180119020Y-73660000D03*
X180119020Y-86360000D03*
X178020980Y-86360000D03*
D13*
X157480000Y-86360000D03*
D14*
X160020000Y-86360000D03*
X162560000Y-86360000D03*
X165100000Y-86360000D03*
X167640000Y-86360000D03*
X170180000Y-86360000D03*
X172720000Y-86360000D03*
D13*
X157480000Y-73660000D03*
D14*
X160020000Y-73660000D03*
X162560000Y-73660000D03*
X165100000Y-73660000D03*
X167640000Y-73660000D03*
X170180000Y-73660000D03*
X172720000Y-73660000D03*
D15*
X177800000Y-77470000D03*
D16*
X180340000Y-77470000D03*
X177800000Y-80010000D03*
X180340000Y-80010000D03*
X177800000Y-82550000D03*
X180340000Y-82550000D03*
D11*
X172720000Y-82710000D03*
X172720000Y-77310000D03*
D17*
X161290000Y-82710000D03*
X162560000Y-82710000D03*
X163830000Y-82710000D03*
X165100000Y-82710000D03*
X166370000Y-82710000D03*
X167640000Y-82710000D03*
X168910000Y-82710000D03*
X168910000Y-77310000D03*
X167640000Y-77310000D03*
X166370000Y-77310000D03*
X165100000Y-77310000D03*
X163830000Y-77310000D03*
X162560000Y-77310000D03*
X161290000Y-77310000D03*
D18*
X161290000Y-80264000D03*
X179070000Y-75692000D03*
X180340000Y-85090000D03*
X170688000Y-78486000D03*
X174244000Y-77216000D03*
X175768000Y-73660000D03*
X157480000Y-76200000D03*
X180086000Y-72644000D03*
X178054000Y-85090000D03*
X174498000Y-80772000D03*
X165100000Y-78994000D03*
X174498000Y-82550000D03*
X172720000Y-81280000D03*
X176276000Y-84328000D03*
X169418000Y-75692000D03*
D19*
X158750000Y-82010000D02*
X159544000Y-82010000D01*
X159544000Y-82010000D02*
X161290000Y-80264000D01*
X180340000Y-82550000D02*
X180340000Y-82296000D01*
X180340000Y-82296000D02*
X181610000Y-81026000D01*
X181610000Y-81026000D02*
X181610000Y-76454000D01*
X181610000Y-76454000D02*
X180848000Y-75692000D01*
X180848000Y-75692000D02*
X179070000Y-75692000D01*
X180119020Y-86360000D02*
X180119020Y-85310980D01*
X180119020Y-85310980D02*
X180340000Y-85090000D01*
X172720000Y-77310000D02*
X171864000Y-77310000D01*
X171864000Y-77310000D02*
X170688000Y-78486000D01*
X172720000Y-77310000D02*
X174150000Y-77310000D01*
X174150000Y-77310000D02*
X174244000Y-77216000D01*
X178020980Y-73660000D02*
X175768000Y-73660000D01*
X178020980Y-73660000D02*
X177038000Y-73660000D01*
X158750000Y-78010000D02*
X158750000Y-77470000D01*
X158750000Y-77470000D02*
X157480000Y-76200000D01*
X161290000Y-77310000D02*
X161130000Y-77310000D01*
X161130000Y-77310000D02*
X157480000Y-73660000D01*
X180119020Y-72677020D02*
X180119020Y-73660000D01*
X180086000Y-72644000D02*
X180119020Y-72677020D01*
X178020980Y-86360000D02*
X178020980Y-85123020D01*
X178020980Y-85123020D02*
X178054000Y-85090000D01*
X180340000Y-77470000D02*
X180340000Y-77978000D01*
X180340000Y-77978000D02*
X179578000Y-78740000D01*
X176530000Y-78740000D02*
X174498000Y-80772000D01*
X179578000Y-78740000D02*
X176530000Y-78740000D01*
X161544000Y-81280000D02*
X161544000Y-81534000D01*
X161290000Y-81788000D02*
X161290000Y-82710000D01*
X161544000Y-81534000D02*
X161290000Y-81788000D01*
X161290000Y-82710000D02*
X161130000Y-82710000D01*
X162560000Y-82710000D02*
X162560000Y-83820000D01*
X162560000Y-83820000D02*
X160020000Y-86360000D01*
X163830000Y-82710000D02*
X163830000Y-83820000D01*
X162560000Y-85090000D02*
X162560000Y-86360000D01*
X163830000Y-83820000D02*
X162560000Y-85090000D01*
X174498000Y-82550000D02*
X172880000Y-82550000D01*
X172880000Y-82550000D02*
X172720000Y-82710000D01*
X177800000Y-82550000D02*
X174498000Y-82550000D01*
X172720000Y-81280000D02*
X172720000Y-82710000D01*
X165100000Y-82710000D02*
X165100000Y-86360000D01*
X166370000Y-82710000D02*
X166370000Y-83820000D01*
X167640000Y-85090000D02*
X167640000Y-86360000D01*
X166370000Y-83820000D02*
X167640000Y-85090000D01*
X167640000Y-82710000D02*
X167640000Y-83820000D01*
X167640000Y-83820000D02*
X170180000Y-86360000D01*
X174498000Y-84328000D02*
X172720000Y-86106000D01*
X176276000Y-84328000D02*
X174498000Y-84328000D01*
X172720000Y-86106000D02*
X172720000Y-86360000D01*
X168910000Y-82710000D02*
X169070000Y-82710000D01*
X169070000Y-82710000D02*
X172720000Y-86360000D01*
X160020000Y-73660000D02*
X162560000Y-76200000D01*
X162560000Y-76200000D02*
X162560000Y-77310000D01*
X162560000Y-73660000D02*
X162560000Y-74930000D01*
X163830000Y-76200000D02*
X163830000Y-77310000D01*
X162560000Y-74930000D02*
X163830000Y-76200000D01*
X165100000Y-73660000D02*
X165100000Y-77310000D01*
X167640000Y-73660000D02*
X167640000Y-74930000D01*
X166370000Y-76200000D02*
X166370000Y-77310000D01*
X167640000Y-74930000D02*
X166370000Y-76200000D01*
X168656000Y-75184000D02*
X168910000Y-75184000D01*
X168910000Y-75184000D02*
X169418000Y-75692000D01*
X170180000Y-73660000D02*
X168656000Y-75184000D01*
X168656000Y-75184000D02*
X167640000Y-76200000D01*
X167640000Y-76200000D02*
X167640000Y-77310000D01*
X177800000Y-77470000D02*
X176530000Y-77470000D01*
X176530000Y-77470000D02*
X172720000Y-73660000D01*
X168910000Y-77310000D02*
X169070000Y-77310000D01*
X169070000Y-77310000D02*
X172720000Y-73660000D01*
D20*
G36*
X156949673Y-76992192D02*
X157293201Y-77134838D01*
X157302560Y-77134846D01*
X157302560Y-79010000D01*
X157346838Y-79245317D01*
X157485910Y-79461441D01*
X157698110Y-79606431D01*
X157950000Y-79657440D01*
X159550000Y-79657440D01*
X159785317Y-79613162D01*
X160001441Y-79474090D01*
X160146431Y-79261890D01*
X160197440Y-79010000D01*
X160197440Y-77452243D01*
X160342560Y-77597363D01*
X160342560Y-78060000D01*
X160386838Y-78295317D01*
X160525910Y-78511441D01*
X160738110Y-78656431D01*
X160990000Y-78707440D01*
X161590000Y-78707440D01*
X161825317Y-78663162D01*
X161924528Y-78599322D01*
X162008110Y-78656431D01*
X162260000Y-78707440D01*
X162860000Y-78707440D01*
X163095317Y-78663162D01*
X163194528Y-78599322D01*
X163278110Y-78656431D01*
X163530000Y-78707440D01*
X164130000Y-78707440D01*
X164365317Y-78663162D01*
X164464528Y-78599322D01*
X164548110Y-78656431D01*
X164800000Y-78707440D01*
X165400000Y-78707440D01*
X165635317Y-78663162D01*
X165734528Y-78599322D01*
X165818110Y-78656431D01*
X166070000Y-78707440D01*
X166670000Y-78707440D01*
X166905317Y-78663162D01*
X167004528Y-78599322D01*
X167088110Y-78656431D01*
X167340000Y-78707440D01*
X167940000Y-78707440D01*
X168175317Y-78663162D01*
X168274528Y-78599322D01*
X168358110Y-78656431D01*
X168610000Y-78707440D01*
X169210000Y-78707440D01*
X169445317Y-78663162D01*
X169661441Y-78524090D01*
X169753083Y-78389968D01*
X169752838Y-78671167D01*
X169894883Y-79014943D01*
X170157673Y-79278192D01*
X170501201Y-79420838D01*
X170873167Y-79421162D01*
X171216943Y-79279117D01*
X171480192Y-79016327D01*
X171557272Y-78830699D01*
X171668110Y-78906431D01*
X171920000Y-78957440D01*
X173520000Y-78957440D01*
X173755317Y-78913162D01*
X173971441Y-78774090D01*
X174116431Y-78561890D01*
X174167440Y-78310000D01*
X174167440Y-78150934D01*
X174429167Y-78151162D01*
X174772943Y-78009117D01*
X175036192Y-77746327D01*
X175178838Y-77402799D01*
X175179020Y-77193822D01*
X175992599Y-78007401D01*
X176239161Y-78172148D01*
X176288960Y-78182054D01*
X176288960Y-78333600D01*
X176333238Y-78568917D01*
X176472310Y-78785041D01*
X176684510Y-78930031D01*
X176728131Y-78938864D01*
X176710971Y-78950330D01*
X176386115Y-79436511D01*
X176272041Y-80010000D01*
X176386115Y-80583489D01*
X176710971Y-81069670D01*
X177025752Y-81280000D01*
X176710971Y-81490330D01*
X176510738Y-81790000D01*
X175060463Y-81790000D01*
X175028327Y-81757808D01*
X174684799Y-81615162D01*
X174312833Y-81614838D01*
X174161314Y-81677444D01*
X174123162Y-81474683D01*
X173984090Y-81258559D01*
X173771890Y-81113569D01*
X173652952Y-81089483D01*
X173513117Y-80751057D01*
X173250327Y-80487808D01*
X172906799Y-80345162D01*
X172534833Y-80344838D01*
X172191057Y-80486883D01*
X171927808Y-80749673D01*
X171787536Y-81087485D01*
X171684683Y-81106838D01*
X171468559Y-81245910D01*
X171323569Y-81458110D01*
X171272560Y-81710000D01*
X171272560Y-83710000D01*
X171302171Y-83867368D01*
X169857440Y-82422638D01*
X169857440Y-81960000D01*
X169813162Y-81724683D01*
X169674090Y-81508559D01*
X169461890Y-81363569D01*
X169210000Y-81312560D01*
X168610000Y-81312560D01*
X168374683Y-81356838D01*
X168275472Y-81420678D01*
X168191890Y-81363569D01*
X167940000Y-81312560D01*
X167340000Y-81312560D01*
X167104683Y-81356838D01*
X167005472Y-81420678D01*
X166921890Y-81363569D01*
X166670000Y-81312560D01*
X166070000Y-81312560D01*
X165834683Y-81356838D01*
X165735472Y-81420678D01*
X165651890Y-81363569D01*
X165400000Y-81312560D01*
X164800000Y-81312560D01*
X164564683Y-81356838D01*
X164465472Y-81420678D01*
X164381890Y-81363569D01*
X164130000Y-81312560D01*
X163530000Y-81312560D01*
X163294683Y-81356838D01*
X163195472Y-81420678D01*
X163111890Y-81363569D01*
X162860000Y-81312560D01*
X162260000Y-81312560D01*
X162024683Y-81356838D01*
X161934020Y-81415178D01*
X161716310Y-81325000D01*
X161575750Y-81325000D01*
X161417002Y-81483748D01*
X161417002Y-81325000D01*
X161303802Y-81325000D01*
X161429680Y-81199122D01*
X161475167Y-81199162D01*
X161818943Y-81057117D01*
X162082192Y-80794327D01*
X162224838Y-80450799D01*
X162225162Y-80078833D01*
X162083117Y-79735057D01*
X161820327Y-79471808D01*
X161476799Y-79329162D01*
X161104833Y-79328838D01*
X160761057Y-79470883D01*
X160497808Y-79733673D01*
X160355162Y-80077201D01*
X160355121Y-80124077D01*
X159958572Y-80520626D01*
X159801890Y-80413569D01*
X159550000Y-80362560D01*
X157950000Y-80362560D01*
X157714683Y-80406838D01*
X157498559Y-80545910D01*
X157353569Y-80758110D01*
X157302560Y-81010000D01*
X157302560Y-83010000D01*
X157346838Y-83245317D01*
X157485910Y-83461441D01*
X157698110Y-83606431D01*
X157950000Y-83657440D01*
X159550000Y-83657440D01*
X159785317Y-83613162D01*
X160001441Y-83474090D01*
X160146431Y-83261890D01*
X160197440Y-83010000D01*
X160197440Y-82431362D01*
X160355000Y-82273802D01*
X160355000Y-82424250D01*
X160513750Y-82583000D01*
X161163000Y-82583000D01*
X161163000Y-82563000D01*
X161417000Y-82563000D01*
X161417000Y-82583000D01*
X161437000Y-82583000D01*
X161437000Y-82837000D01*
X161417000Y-82837000D01*
X161417000Y-82857000D01*
X161163000Y-82857000D01*
X161163000Y-82837000D01*
X160513750Y-82837000D01*
X160355000Y-82995750D01*
X160355000Y-83586309D01*
X160451673Y-83819698D01*
X160630301Y-83998327D01*
X160863690Y-84095000D01*
X161004250Y-84095000D01*
X161162998Y-83936252D01*
X161162998Y-84095000D01*
X161210198Y-84095000D01*
X160527579Y-84777619D01*
X160020000Y-84676655D01*
X159446511Y-84790729D01*
X158960330Y-85115585D01*
X158945500Y-85137780D01*
X158881927Y-84984302D01*
X158703299Y-84805673D01*
X158469910Y-84709000D01*
X157765750Y-84709000D01*
X157607000Y-84867750D01*
X157607000Y-86233000D01*
X157627000Y-86233000D01*
X157627000Y-86487000D01*
X157607000Y-86487000D01*
X157607000Y-86507000D01*
X157353000Y-86507000D01*
X157353000Y-86487000D01*
X157333000Y-86487000D01*
X157333000Y-86233000D01*
X157353000Y-86233000D01*
X157353000Y-84867750D01*
X157194250Y-84709000D01*
X156920000Y-84709000D01*
X156920000Y-76962467D01*
X156949673Y-76992192D01*
X156949673Y-76992192D01*
G37*
X156949673Y-76992192D02*
X157293201Y-77134838D01*
X157302560Y-77134846D01*
X157302560Y-79010000D01*
X157346838Y-79245317D01*
X157485910Y-79461441D01*
X157698110Y-79606431D01*
X157950000Y-79657440D01*
X159550000Y-79657440D01*
X159785317Y-79613162D01*
X160001441Y-79474090D01*
X160146431Y-79261890D01*
X160197440Y-79010000D01*
X160197440Y-77452243D01*
X160342560Y-77597363D01*
X160342560Y-78060000D01*
X160386838Y-78295317D01*
X160525910Y-78511441D01*
X160738110Y-78656431D01*
X160990000Y-78707440D01*
X161590000Y-78707440D01*
X161825317Y-78663162D01*
X161924528Y-78599322D01*
X162008110Y-78656431D01*
X162260000Y-78707440D01*
X162860000Y-78707440D01*
X163095317Y-78663162D01*
X163194528Y-78599322D01*
X163278110Y-78656431D01*
X163530000Y-78707440D01*
X164130000Y-78707440D01*
X164365317Y-78663162D01*
X164464528Y-78599322D01*
X164548110Y-78656431D01*
X164800000Y-78707440D01*
X165400000Y-78707440D01*
X165635317Y-78663162D01*
X165734528Y-78599322D01*
X165818110Y-78656431D01*
X166070000Y-78707440D01*
X166670000Y-78707440D01*
X166905317Y-78663162D01*
X167004528Y-78599322D01*
X167088110Y-78656431D01*
X167340000Y-78707440D01*
X167940000Y-78707440D01*
X168175317Y-78663162D01*
X168274528Y-78599322D01*
X168358110Y-78656431D01*
X168610000Y-78707440D01*
X169210000Y-78707440D01*
X169445317Y-78663162D01*
X169661441Y-78524090D01*
X169753083Y-78389968D01*
X169752838Y-78671167D01*
X169894883Y-79014943D01*
X170157673Y-79278192D01*
X170501201Y-79420838D01*
X170873167Y-79421162D01*
X171216943Y-79279117D01*
X171480192Y-79016327D01*
X171557272Y-78830699D01*
X171668110Y-78906431D01*
X171920000Y-78957440D01*
X173520000Y-78957440D01*
X173755317Y-78913162D01*
X173971441Y-78774090D01*
X174116431Y-78561890D01*
X174167440Y-78310000D01*
X174167440Y-78150934D01*
X174429167Y-78151162D01*
X174772943Y-78009117D01*
X175036192Y-77746327D01*
X175178838Y-77402799D01*
X175179020Y-77193822D01*
X175992599Y-78007401D01*
X176239161Y-78172148D01*
X176288960Y-78182054D01*
X176288960Y-78333600D01*
X176333238Y-78568917D01*
X176472310Y-78785041D01*
X176684510Y-78930031D01*
X176728131Y-78938864D01*
X176710971Y-78950330D01*
X176386115Y-79436511D01*
X176272041Y-80010000D01*
X176386115Y-80583489D01*
X176710971Y-81069670D01*
X177025752Y-81280000D01*
X176710971Y-81490330D01*
X176510738Y-81790000D01*
X175060463Y-81790000D01*
X175028327Y-81757808D01*
X174684799Y-81615162D01*
X174312833Y-81614838D01*
X174161314Y-81677444D01*
X174123162Y-81474683D01*
X173984090Y-81258559D01*
X173771890Y-81113569D01*
X173652952Y-81089483D01*
X173513117Y-80751057D01*
X173250327Y-80487808D01*
X172906799Y-80345162D01*
X172534833Y-80344838D01*
X172191057Y-80486883D01*
X171927808Y-80749673D01*
X171787536Y-81087485D01*
X171684683Y-81106838D01*
X171468559Y-81245910D01*
X171323569Y-81458110D01*
X171272560Y-81710000D01*
X171272560Y-83710000D01*
X171302171Y-83867368D01*
X169857440Y-82422638D01*
X169857440Y-81960000D01*
X169813162Y-81724683D01*
X169674090Y-81508559D01*
X169461890Y-81363569D01*
X169210000Y-81312560D01*
X168610000Y-81312560D01*
X168374683Y-81356838D01*
X168275472Y-81420678D01*
X168191890Y-81363569D01*
X167940000Y-81312560D01*
X167340000Y-81312560D01*
X167104683Y-81356838D01*
X167005472Y-81420678D01*
X166921890Y-81363569D01*
X166670000Y-81312560D01*
X166070000Y-81312560D01*
X165834683Y-81356838D01*
X165735472Y-81420678D01*
X165651890Y-81363569D01*
X165400000Y-81312560D01*
X164800000Y-81312560D01*
X164564683Y-81356838D01*
X164465472Y-81420678D01*
X164381890Y-81363569D01*
X164130000Y-81312560D01*
X163530000Y-81312560D01*
X163294683Y-81356838D01*
X163195472Y-81420678D01*
X163111890Y-81363569D01*
X162860000Y-81312560D01*
X162260000Y-81312560D01*
X162024683Y-81356838D01*
X161934020Y-81415178D01*
X161716310Y-81325000D01*
X161575750Y-81325000D01*
X161417002Y-81483748D01*
X161417002Y-81325000D01*
X161303802Y-81325000D01*
X161429680Y-81199122D01*
X161475167Y-81199162D01*
X161818943Y-81057117D01*
X162082192Y-80794327D01*
X162224838Y-80450799D01*
X162225162Y-80078833D01*
X162083117Y-79735057D01*
X161820327Y-79471808D01*
X161476799Y-79329162D01*
X161104833Y-79328838D01*
X160761057Y-79470883D01*
X160497808Y-79733673D01*
X160355162Y-80077201D01*
X160355121Y-80124077D01*
X159958572Y-80520626D01*
X159801890Y-80413569D01*
X159550000Y-80362560D01*
X157950000Y-80362560D01*
X157714683Y-80406838D01*
X157498559Y-80545910D01*
X157353569Y-80758110D01*
X157302560Y-81010000D01*
X157302560Y-83010000D01*
X157346838Y-83245317D01*
X157485910Y-83461441D01*
X157698110Y-83606431D01*
X157950000Y-83657440D01*
X159550000Y-83657440D01*
X159785317Y-83613162D01*
X160001441Y-83474090D01*
X160146431Y-83261890D01*
X160197440Y-83010000D01*
X160197440Y-82431362D01*
X160355000Y-82273802D01*
X160355000Y-82424250D01*
X160513750Y-82583000D01*
X161163000Y-82583000D01*
X161163000Y-82563000D01*
X161417000Y-82563000D01*
X161417000Y-82583000D01*
X161437000Y-82583000D01*
X161437000Y-82837000D01*
X161417000Y-82837000D01*
X161417000Y-82857000D01*
X161163000Y-82857000D01*
X161163000Y-82837000D01*
X160513750Y-82837000D01*
X160355000Y-82995750D01*
X160355000Y-83586309D01*
X160451673Y-83819698D01*
X160630301Y-83998327D01*
X160863690Y-84095000D01*
X161004250Y-84095000D01*
X161162998Y-83936252D01*
X161162998Y-84095000D01*
X161210198Y-84095000D01*
X160527579Y-84777619D01*
X160020000Y-84676655D01*
X159446511Y-84790729D01*
X158960330Y-85115585D01*
X158945500Y-85137780D01*
X158881927Y-84984302D01*
X158703299Y-84805673D01*
X158469910Y-84709000D01*
X157765750Y-84709000D01*
X157607000Y-84867750D01*
X157607000Y-86233000D01*
X157627000Y-86233000D01*
X157627000Y-86487000D01*
X157607000Y-86487000D01*
X157607000Y-86507000D01*
X157353000Y-86507000D01*
X157353000Y-86487000D01*
X157333000Y-86487000D01*
X157333000Y-86233000D01*
X157353000Y-86233000D01*
X157353000Y-84867750D01*
X157194250Y-84709000D01*
X156920000Y-84709000D01*
X156920000Y-76962467D01*
X156949673Y-76992192D01*
G36*
X180467000Y-77343000D02*
X180487000Y-77343000D01*
X180487000Y-77597000D01*
X180467000Y-77597000D01*
X180467000Y-77617000D01*
X180213000Y-77617000D01*
X180213000Y-77597000D01*
X180193000Y-77597000D01*
X180193000Y-77343000D01*
X180213000Y-77343000D01*
X180213000Y-77323000D01*
X180467000Y-77323000D01*
X180467000Y-77343000D01*
X180467000Y-77343000D01*
G37*
X180467000Y-77343000D02*
X180487000Y-77343000D01*
X180487000Y-77597000D01*
X180467000Y-77597000D01*
X180467000Y-77617000D01*
X180213000Y-77617000D01*
X180213000Y-77597000D01*
X180193000Y-77597000D01*
X180193000Y-77343000D01*
X180213000Y-77343000D01*
X180213000Y-77323000D01*
X180467000Y-77323000D01*
X180467000Y-77343000D01*
M02*
