M48
;DRILL file {KiCad 4.0.5+dfsg1-4} date Tue May  1 22:16:30 2018
;FORMAT={-:-/ absolute / metric / decimal}
FMAT,2
METRIC,TZ
T1C0.400
T2C1.016
%
G90
G05
M71
T1
X171.45Y-88.9
X171.958Y-92.202
X172.466Y-94.234
X180.848Y-92.964
X182.88Y-93.98
X188.468Y-96.52
X188.595Y-90.805
X188.722Y-94.742
X191.77Y-94.742
X193.294Y-98.298
X195.58Y-90.17
T2
X171.45Y-86.36
X171.45Y-99.06
X173.99Y-86.36
X173.99Y-99.06
X176.53Y-86.36
X176.53Y-99.06
X179.07Y-86.36
X179.07Y-99.06
X181.61Y-86.36
X181.61Y-99.06
X184.15Y-86.36
X184.15Y-90.17
X184.15Y-92.71
X184.15Y-95.25
X184.15Y-99.06
X186.69Y-86.36
X186.69Y-90.17
X186.69Y-92.71
X186.69Y-95.25
X186.69Y-99.06
T0
M30
