G04 #@! TF.FileFunction,Soldermask,Top*
%FSLAX46Y46*%
G04 Gerber Fmt 4.6, Leading zero omitted, Abs format (unit mm)*
G04 Created by KiCad (PCBNEW 4.0.5+dfsg1-4) date Tue Apr 17 10:54:11 2018*
%MOMM*%
%LPD*%
G01*
G04 APERTURE LIST*
%ADD10C,0.100000*%
%ADD11R,2.000000X2.400000*%
%ADD12R,1.598880X1.598880*%
%ADD13R,2.127200X2.432000*%
%ADD14O,2.127200X2.432000*%
%ADD15R,2.127200X2.127200*%
%ADD16O,2.127200X2.127200*%
%ADD17R,1.000000X1.900000*%
G04 APERTURE END LIST*
D10*
D11*
X158750000Y-82010000D03*
X158750000Y-78010000D03*
D12*
X178020980Y-73660000D03*
X180119020Y-73660000D03*
X180119020Y-86360000D03*
X178020980Y-86360000D03*
D13*
X157480000Y-86360000D03*
D14*
X160020000Y-86360000D03*
X162560000Y-86360000D03*
X165100000Y-86360000D03*
X167640000Y-86360000D03*
X170180000Y-86360000D03*
X172720000Y-86360000D03*
D13*
X157480000Y-73660000D03*
D14*
X160020000Y-73660000D03*
X162560000Y-73660000D03*
X165100000Y-73660000D03*
X167640000Y-73660000D03*
X170180000Y-73660000D03*
X172720000Y-73660000D03*
D15*
X177800000Y-77470000D03*
D16*
X180340000Y-77470000D03*
X177800000Y-80010000D03*
X180340000Y-80010000D03*
X177800000Y-82550000D03*
X180340000Y-82550000D03*
D11*
X172720000Y-82710000D03*
X172720000Y-77310000D03*
D17*
X161290000Y-82710000D03*
X162560000Y-82710000D03*
X163830000Y-82710000D03*
X165100000Y-82710000D03*
X166370000Y-82710000D03*
X167640000Y-82710000D03*
X168910000Y-82710000D03*
X168910000Y-77310000D03*
X167640000Y-77310000D03*
X166370000Y-77310000D03*
X165100000Y-77310000D03*
X163830000Y-77310000D03*
X162560000Y-77310000D03*
X161290000Y-77310000D03*
M02*
