G04 #@! TF.FileFunction,Legend,Top*
%FSLAX46Y46*%
G04 Gerber Fmt 4.6, Leading zero omitted, Abs format (unit mm)*
G04 Created by KiCad (PCBNEW 4.0.5+dfsg1-4) date Tue Apr 17 10:54:11 2018*
%MOMM*%
%LPD*%
G01*
G04 APERTURE LIST*
%ADD10C,0.100000*%
%ADD11C,0.190500*%
%ADD12C,0.158750*%
%ADD13C,0.150000*%
G04 APERTURE END LIST*
D10*
D11*
X180303715Y-84382429D02*
X180884286Y-84382429D01*
X180049715Y-75746429D02*
X180630286Y-75746429D01*
X180340000Y-76036714D02*
X180340000Y-75456143D01*
D12*
X173460834Y-84040738D02*
X173460834Y-84675738D01*
X173218929Y-84675738D01*
X173158453Y-84645500D01*
X173128214Y-84615262D01*
X173097976Y-84554786D01*
X173097976Y-84464071D01*
X173128214Y-84403595D01*
X173158453Y-84373357D01*
X173218929Y-84343119D01*
X173460834Y-84343119D01*
X172856072Y-84222167D02*
X172553691Y-84222167D01*
X172916548Y-84040738D02*
X172704881Y-84675738D01*
X172493214Y-84040738D01*
X172009405Y-84675738D02*
X172130357Y-84675738D01*
X172190833Y-84645500D01*
X172221071Y-84615262D01*
X172281548Y-84524548D01*
X172311786Y-84403595D01*
X172311786Y-84161690D01*
X172281548Y-84101214D01*
X172251309Y-84070976D01*
X172190833Y-84040738D01*
X172069881Y-84040738D01*
X172009405Y-84070976D01*
X171979167Y-84101214D01*
X171948928Y-84161690D01*
X171948928Y-84312881D01*
X171979167Y-84373357D01*
X172009405Y-84403595D01*
X172069881Y-84433833D01*
X172190833Y-84433833D01*
X172251309Y-84403595D01*
X172281548Y-84373357D01*
X172311786Y-84312881D01*
X170920834Y-84040738D02*
X170920834Y-84675738D01*
X170678929Y-84675738D01*
X170618453Y-84645500D01*
X170588214Y-84615262D01*
X170557976Y-84554786D01*
X170557976Y-84464071D01*
X170588214Y-84403595D01*
X170618453Y-84373357D01*
X170678929Y-84343119D01*
X170920834Y-84343119D01*
X170316072Y-84222167D02*
X170013691Y-84222167D01*
X170376548Y-84040738D02*
X170164881Y-84675738D01*
X169953214Y-84040738D01*
X169802024Y-84675738D02*
X169378690Y-84675738D01*
X169650833Y-84040738D01*
X168426191Y-84040738D02*
X168426191Y-84675738D01*
X168184286Y-84675738D01*
X168123810Y-84645500D01*
X168093571Y-84615262D01*
X168063333Y-84554786D01*
X168063333Y-84464071D01*
X168093571Y-84403595D01*
X168123810Y-84373357D01*
X168184286Y-84343119D01*
X168426191Y-84343119D01*
X167579524Y-84373357D02*
X167488810Y-84343119D01*
X167458571Y-84312881D01*
X167428333Y-84252405D01*
X167428333Y-84161690D01*
X167458571Y-84101214D01*
X167488810Y-84070976D01*
X167549286Y-84040738D01*
X167791191Y-84040738D01*
X167791191Y-84675738D01*
X167579524Y-84675738D01*
X167519048Y-84645500D01*
X167488810Y-84615262D01*
X167458571Y-84554786D01*
X167458571Y-84494310D01*
X167488810Y-84433833D01*
X167519048Y-84403595D01*
X167579524Y-84373357D01*
X167791191Y-84373357D01*
X167186429Y-84615262D02*
X167156191Y-84645500D01*
X167095714Y-84675738D01*
X166944524Y-84675738D01*
X166884048Y-84645500D01*
X166853810Y-84615262D01*
X166823571Y-84554786D01*
X166823571Y-84494310D01*
X166853810Y-84403595D01*
X167216667Y-84040738D01*
X166823571Y-84040738D01*
X165886191Y-84040738D02*
X165886191Y-84675738D01*
X165644286Y-84675738D01*
X165583810Y-84645500D01*
X165553571Y-84615262D01*
X165523333Y-84554786D01*
X165523333Y-84464071D01*
X165553571Y-84403595D01*
X165583810Y-84373357D01*
X165644286Y-84343119D01*
X165886191Y-84343119D01*
X165039524Y-84373357D02*
X164948810Y-84343119D01*
X164918571Y-84312881D01*
X164888333Y-84252405D01*
X164888333Y-84161690D01*
X164918571Y-84101214D01*
X164948810Y-84070976D01*
X165009286Y-84040738D01*
X165251191Y-84040738D01*
X165251191Y-84675738D01*
X165039524Y-84675738D01*
X164979048Y-84645500D01*
X164948810Y-84615262D01*
X164918571Y-84554786D01*
X164918571Y-84494310D01*
X164948810Y-84433833D01*
X164979048Y-84403595D01*
X165039524Y-84373357D01*
X165251191Y-84373357D01*
X164676667Y-84675738D02*
X164283571Y-84675738D01*
X164495238Y-84433833D01*
X164404524Y-84433833D01*
X164344048Y-84403595D01*
X164313810Y-84373357D01*
X164283571Y-84312881D01*
X164283571Y-84161690D01*
X164313810Y-84101214D01*
X164344048Y-84070976D01*
X164404524Y-84040738D01*
X164585952Y-84040738D01*
X164646429Y-84070976D01*
X164676667Y-84101214D01*
X163346191Y-84040738D02*
X163346191Y-84675738D01*
X163104286Y-84675738D01*
X163043810Y-84645500D01*
X163013571Y-84615262D01*
X162983333Y-84554786D01*
X162983333Y-84464071D01*
X163013571Y-84403595D01*
X163043810Y-84373357D01*
X163104286Y-84343119D01*
X163346191Y-84343119D01*
X162499524Y-84373357D02*
X162408810Y-84343119D01*
X162378571Y-84312881D01*
X162348333Y-84252405D01*
X162348333Y-84161690D01*
X162378571Y-84101214D01*
X162408810Y-84070976D01*
X162469286Y-84040738D01*
X162711191Y-84040738D01*
X162711191Y-84675738D01*
X162499524Y-84675738D01*
X162439048Y-84645500D01*
X162408810Y-84615262D01*
X162378571Y-84554786D01*
X162378571Y-84494310D01*
X162408810Y-84433833D01*
X162439048Y-84403595D01*
X162499524Y-84373357D01*
X162711191Y-84373357D01*
X161743571Y-84040738D02*
X162106429Y-84040738D01*
X161925000Y-84040738D02*
X161925000Y-84675738D01*
X161985476Y-84585024D01*
X162045952Y-84524548D01*
X162106429Y-84494310D01*
X160806191Y-84040738D02*
X160806191Y-84675738D01*
X160564286Y-84675738D01*
X160503810Y-84645500D01*
X160473571Y-84615262D01*
X160443333Y-84554786D01*
X160443333Y-84464071D01*
X160473571Y-84403595D01*
X160503810Y-84373357D01*
X160564286Y-84343119D01*
X160806191Y-84343119D01*
X159959524Y-84373357D02*
X159868810Y-84343119D01*
X159838571Y-84312881D01*
X159808333Y-84252405D01*
X159808333Y-84161690D01*
X159838571Y-84101214D01*
X159868810Y-84070976D01*
X159929286Y-84040738D01*
X160171191Y-84040738D01*
X160171191Y-84675738D01*
X159959524Y-84675738D01*
X159899048Y-84645500D01*
X159868810Y-84615262D01*
X159838571Y-84554786D01*
X159838571Y-84494310D01*
X159868810Y-84433833D01*
X159899048Y-84403595D01*
X159959524Y-84373357D01*
X160171191Y-84373357D01*
X159415238Y-84675738D02*
X159354762Y-84675738D01*
X159294286Y-84645500D01*
X159264048Y-84615262D01*
X159233810Y-84554786D01*
X159203571Y-84433833D01*
X159203571Y-84282643D01*
X159233810Y-84161690D01*
X159264048Y-84101214D01*
X159294286Y-84070976D01*
X159354762Y-84040738D01*
X159415238Y-84040738D01*
X159475714Y-84070976D01*
X159505952Y-84101214D01*
X159536191Y-84161690D01*
X159566429Y-84282643D01*
X159566429Y-84433833D01*
X159536191Y-84554786D01*
X159505952Y-84615262D01*
X159475714Y-84645500D01*
X159415238Y-84675738D01*
X157600953Y-84675738D02*
X157903334Y-84675738D01*
X157933572Y-84373357D01*
X157903334Y-84403595D01*
X157842857Y-84433833D01*
X157691667Y-84433833D01*
X157631191Y-84403595D01*
X157600953Y-84373357D01*
X157570714Y-84312881D01*
X157570714Y-84161690D01*
X157600953Y-84101214D01*
X157631191Y-84070976D01*
X157691667Y-84040738D01*
X157842857Y-84040738D01*
X157903334Y-84070976D01*
X157933572Y-84101214D01*
X157389286Y-84675738D02*
X157177619Y-84040738D01*
X156965952Y-84675738D01*
X171979166Y-75979262D02*
X171979166Y-75344262D01*
X172221071Y-75344262D01*
X172281547Y-75374500D01*
X172311786Y-75404738D01*
X172342024Y-75465214D01*
X172342024Y-75555929D01*
X172311786Y-75616405D01*
X172281547Y-75646643D01*
X172221071Y-75676881D01*
X171979166Y-75676881D01*
X172583928Y-75797833D02*
X172886309Y-75797833D01*
X172523452Y-75979262D02*
X172735119Y-75344262D01*
X172946786Y-75979262D01*
X173460833Y-75344262D02*
X173158452Y-75344262D01*
X173128214Y-75646643D01*
X173158452Y-75616405D01*
X173218929Y-75586167D01*
X173370119Y-75586167D01*
X173430595Y-75616405D01*
X173460833Y-75646643D01*
X173491072Y-75707119D01*
X173491072Y-75858310D01*
X173460833Y-75918786D01*
X173430595Y-75949024D01*
X173370119Y-75979262D01*
X173218929Y-75979262D01*
X173158452Y-75949024D01*
X173128214Y-75918786D01*
X169439166Y-75979262D02*
X169439166Y-75344262D01*
X169681071Y-75344262D01*
X169741547Y-75374500D01*
X169771786Y-75404738D01*
X169802024Y-75465214D01*
X169802024Y-75555929D01*
X169771786Y-75616405D01*
X169741547Y-75646643D01*
X169681071Y-75676881D01*
X169439166Y-75676881D01*
X170043928Y-75797833D02*
X170346309Y-75797833D01*
X169983452Y-75979262D02*
X170195119Y-75344262D01*
X170406786Y-75979262D01*
X170890595Y-75555929D02*
X170890595Y-75979262D01*
X170739405Y-75314024D02*
X170588214Y-75767595D01*
X170981310Y-75767595D01*
X166899166Y-75979262D02*
X166899166Y-75344262D01*
X167141071Y-75344262D01*
X167201547Y-75374500D01*
X167231786Y-75404738D01*
X167262024Y-75465214D01*
X167262024Y-75555929D01*
X167231786Y-75616405D01*
X167201547Y-75646643D01*
X167141071Y-75676881D01*
X166899166Y-75676881D01*
X167503928Y-75797833D02*
X167806309Y-75797833D01*
X167443452Y-75979262D02*
X167655119Y-75344262D01*
X167866786Y-75979262D01*
X168017976Y-75344262D02*
X168411072Y-75344262D01*
X168199405Y-75586167D01*
X168290119Y-75586167D01*
X168350595Y-75616405D01*
X168380833Y-75646643D01*
X168411072Y-75707119D01*
X168411072Y-75858310D01*
X168380833Y-75918786D01*
X168350595Y-75949024D01*
X168290119Y-75979262D01*
X168108691Y-75979262D01*
X168048214Y-75949024D01*
X168017976Y-75918786D01*
X164359166Y-75979262D02*
X164359166Y-75344262D01*
X164601071Y-75344262D01*
X164661547Y-75374500D01*
X164691786Y-75404738D01*
X164722024Y-75465214D01*
X164722024Y-75555929D01*
X164691786Y-75616405D01*
X164661547Y-75646643D01*
X164601071Y-75676881D01*
X164359166Y-75676881D01*
X164963928Y-75797833D02*
X165266309Y-75797833D01*
X164903452Y-75979262D02*
X165115119Y-75344262D01*
X165326786Y-75979262D01*
X165508214Y-75404738D02*
X165538452Y-75374500D01*
X165598929Y-75344262D01*
X165750119Y-75344262D01*
X165810595Y-75374500D01*
X165840833Y-75404738D01*
X165871072Y-75465214D01*
X165871072Y-75525690D01*
X165840833Y-75616405D01*
X165477976Y-75979262D01*
X165871072Y-75979262D01*
X161819166Y-75979262D02*
X161819166Y-75344262D01*
X162061071Y-75344262D01*
X162121547Y-75374500D01*
X162151786Y-75404738D01*
X162182024Y-75465214D01*
X162182024Y-75555929D01*
X162151786Y-75616405D01*
X162121547Y-75646643D01*
X162061071Y-75676881D01*
X161819166Y-75676881D01*
X162423928Y-75797833D02*
X162726309Y-75797833D01*
X162363452Y-75979262D02*
X162575119Y-75344262D01*
X162786786Y-75979262D01*
X163331072Y-75979262D02*
X162968214Y-75979262D01*
X163149643Y-75979262D02*
X163149643Y-75344262D01*
X163089167Y-75434976D01*
X163028691Y-75495452D01*
X162968214Y-75525690D01*
X159279166Y-75979262D02*
X159279166Y-75344262D01*
X159521071Y-75344262D01*
X159581547Y-75374500D01*
X159611786Y-75404738D01*
X159642024Y-75465214D01*
X159642024Y-75555929D01*
X159611786Y-75616405D01*
X159581547Y-75646643D01*
X159521071Y-75676881D01*
X159279166Y-75676881D01*
X159883928Y-75797833D02*
X160186309Y-75797833D01*
X159823452Y-75979262D02*
X160035119Y-75344262D01*
X160246786Y-75979262D01*
X160579405Y-75344262D02*
X160639881Y-75344262D01*
X160700357Y-75374500D01*
X160730595Y-75404738D01*
X160760833Y-75465214D01*
X160791072Y-75586167D01*
X160791072Y-75737357D01*
X160760833Y-75858310D01*
X160730595Y-75918786D01*
X160700357Y-75949024D01*
X160639881Y-75979262D01*
X160579405Y-75979262D01*
X160518929Y-75949024D01*
X160488691Y-75918786D01*
X160458452Y-75858310D01*
X160428214Y-75737357D01*
X160428214Y-75586167D01*
X160458452Y-75465214D01*
X160488691Y-75404738D01*
X160518929Y-75374500D01*
X160579405Y-75344262D01*
X156996191Y-75374500D02*
X156935714Y-75344262D01*
X156845000Y-75344262D01*
X156754286Y-75374500D01*
X156693810Y-75434976D01*
X156663571Y-75495452D01*
X156633333Y-75616405D01*
X156633333Y-75707119D01*
X156663571Y-75828071D01*
X156693810Y-75888548D01*
X156754286Y-75949024D01*
X156845000Y-75979262D01*
X156905476Y-75979262D01*
X156996191Y-75949024D01*
X157026429Y-75918786D01*
X157026429Y-75707119D01*
X156905476Y-75707119D01*
X157298571Y-75979262D02*
X157298571Y-75344262D01*
X157661429Y-75979262D01*
X157661429Y-75344262D01*
X157963809Y-75979262D02*
X157963809Y-75344262D01*
X158115000Y-75344262D01*
X158205714Y-75374500D01*
X158266190Y-75434976D01*
X158296429Y-75495452D01*
X158326667Y-75616405D01*
X158326667Y-75707119D01*
X158296429Y-75828071D01*
X158266190Y-75888548D01*
X158205714Y-75949024D01*
X158115000Y-75979262D01*
X157963809Y-75979262D01*
D11*
X174957619Y-84509428D02*
X174957619Y-84073999D01*
X175973619Y-84291713D02*
X174957619Y-84291713D01*
X175973619Y-83819999D02*
X175296286Y-83819999D01*
X174957619Y-83819999D02*
X175006000Y-83856285D01*
X175054381Y-83819999D01*
X175006000Y-83783714D01*
X174957619Y-83819999D01*
X175054381Y-83819999D01*
X175296286Y-83457142D02*
X175973619Y-83457142D01*
X175393048Y-83457142D02*
X175344667Y-83420857D01*
X175296286Y-83348285D01*
X175296286Y-83239428D01*
X175344667Y-83166857D01*
X175441429Y-83130571D01*
X175973619Y-83130571D01*
X175296286Y-82840285D02*
X175973619Y-82658856D01*
X175296286Y-82477428D02*
X175973619Y-82658856D01*
X176215524Y-82731428D01*
X176263905Y-82767713D01*
X176312286Y-82840285D01*
X175441429Y-81933142D02*
X175489810Y-81824285D01*
X175538190Y-81788000D01*
X175634952Y-81751714D01*
X175780095Y-81751714D01*
X175876857Y-81788000D01*
X175925238Y-81824285D01*
X175973619Y-81896857D01*
X175973619Y-82187142D01*
X174957619Y-82187142D01*
X174957619Y-81933142D01*
X175006000Y-81860571D01*
X175054381Y-81824285D01*
X175151143Y-81788000D01*
X175247905Y-81788000D01*
X175344667Y-81824285D01*
X175393048Y-81860571D01*
X175441429Y-81933142D01*
X175441429Y-82187142D01*
X175973619Y-81316285D02*
X175925238Y-81388857D01*
X175876857Y-81425142D01*
X175780095Y-81461428D01*
X175489810Y-81461428D01*
X175393048Y-81425142D01*
X175344667Y-81388857D01*
X175296286Y-81316285D01*
X175296286Y-81207428D01*
X175344667Y-81134857D01*
X175393048Y-81098571D01*
X175489810Y-81062285D01*
X175780095Y-81062285D01*
X175876857Y-81098571D01*
X175925238Y-81134857D01*
X175973619Y-81207428D01*
X175973619Y-81316285D01*
X175973619Y-80409142D02*
X175441429Y-80409142D01*
X175344667Y-80445428D01*
X175296286Y-80517999D01*
X175296286Y-80663142D01*
X175344667Y-80735713D01*
X175925238Y-80409142D02*
X175973619Y-80481713D01*
X175973619Y-80663142D01*
X175925238Y-80735713D01*
X175828476Y-80771999D01*
X175731714Y-80771999D01*
X175634952Y-80735713D01*
X175586571Y-80663142D01*
X175586571Y-80481713D01*
X175538190Y-80409142D01*
X175973619Y-80046284D02*
X175296286Y-80046284D01*
X175489810Y-80046284D02*
X175393048Y-80009999D01*
X175344667Y-79973713D01*
X175296286Y-79901142D01*
X175296286Y-79828570D01*
X175973619Y-79247999D02*
X174957619Y-79247999D01*
X175925238Y-79247999D02*
X175973619Y-79320570D01*
X175973619Y-79465713D01*
X175925238Y-79538285D01*
X175876857Y-79574570D01*
X175780095Y-79610856D01*
X175489810Y-79610856D01*
X175393048Y-79574570D01*
X175344667Y-79538285D01*
X175296286Y-79465713D01*
X175296286Y-79320570D01*
X175344667Y-79247999D01*
X175393048Y-78776284D02*
X175344667Y-78848856D01*
X175296286Y-78885141D01*
X175199524Y-78921427D01*
X175151143Y-78921427D01*
X175054381Y-78885141D01*
X175006000Y-78848856D01*
X174957619Y-78776284D01*
X174957619Y-78631141D01*
X175006000Y-78558570D01*
X175054381Y-78522284D01*
X175151143Y-78485999D01*
X175199524Y-78485999D01*
X175296286Y-78522284D01*
X175344667Y-78558570D01*
X175393048Y-78631141D01*
X175393048Y-78776284D01*
X175441429Y-78848856D01*
X175489810Y-78885141D01*
X175586571Y-78921427D01*
X175780095Y-78921427D01*
X175876857Y-78885141D01*
X175925238Y-78848856D01*
X175973619Y-78776284D01*
X175973619Y-78631141D01*
X175925238Y-78558570D01*
X175876857Y-78522284D01*
X175780095Y-78485999D01*
X175586571Y-78485999D01*
X175489810Y-78522284D01*
X175441429Y-78558570D01*
X175393048Y-78631141D01*
X175296286Y-77832856D02*
X175973619Y-77832856D01*
X174909238Y-78014285D02*
X175634952Y-78195713D01*
X175634952Y-77723999D01*
X175973619Y-77034571D02*
X175973619Y-77469999D01*
X175973619Y-77252285D02*
X174957619Y-77252285D01*
X175102762Y-77324856D01*
X175199524Y-77397428D01*
X175247905Y-77469999D01*
X174957619Y-76562857D02*
X174957619Y-76490285D01*
X175006000Y-76417714D01*
X175054381Y-76381428D01*
X175151143Y-76345142D01*
X175344667Y-76308857D01*
X175586571Y-76308857D01*
X175780095Y-76345142D01*
X175876857Y-76381428D01*
X175925238Y-76417714D01*
X175973619Y-76490285D01*
X175973619Y-76562857D01*
X175925238Y-76635428D01*
X175876857Y-76671714D01*
X175780095Y-76707999D01*
X175586571Y-76744285D01*
X175344667Y-76744285D01*
X175151143Y-76707999D01*
X175054381Y-76671714D01*
X175006000Y-76635428D01*
X174957619Y-76562857D01*
X174957619Y-75837143D02*
X174957619Y-75764571D01*
X175006000Y-75692000D01*
X175054381Y-75655714D01*
X175151143Y-75619428D01*
X175344667Y-75583143D01*
X175586571Y-75583143D01*
X175780095Y-75619428D01*
X175876857Y-75655714D01*
X175925238Y-75692000D01*
X175973619Y-75764571D01*
X175973619Y-75837143D01*
X175925238Y-75909714D01*
X175876857Y-75946000D01*
X175780095Y-75982285D01*
X175586571Y-76018571D01*
X175344667Y-76018571D01*
X175151143Y-75982285D01*
X175054381Y-75946000D01*
X175006000Y-75909714D01*
X174957619Y-75837143D01*
D13*
X157725000Y-79010000D02*
X157725000Y-81010000D01*
X159775000Y-81010000D02*
X159775000Y-79010000D01*
X180670000Y-72910000D02*
X177970000Y-72910000D01*
X180670000Y-74410000D02*
X177970000Y-74410000D01*
X179170000Y-73510000D02*
X179170000Y-73760000D01*
X179170000Y-73760000D02*
X179320000Y-73610000D01*
X179420000Y-74010000D02*
X179420000Y-73310000D01*
X179070000Y-73660000D02*
X178720000Y-73660000D01*
X179420000Y-73660000D02*
X179070000Y-74010000D01*
X179070000Y-74010000D02*
X179070000Y-73310000D01*
X179070000Y-73310000D02*
X179420000Y-73660000D01*
X177470000Y-87110000D02*
X180170000Y-87110000D01*
X177470000Y-85610000D02*
X180170000Y-85610000D01*
X178970000Y-86510000D02*
X178970000Y-86260000D01*
X178970000Y-86260000D02*
X178820000Y-86410000D01*
X178720000Y-86010000D02*
X178720000Y-86710000D01*
X179070000Y-86360000D02*
X179420000Y-86360000D01*
X178720000Y-86360000D02*
X179070000Y-86010000D01*
X179070000Y-86010000D02*
X179070000Y-86710000D01*
X179070000Y-86710000D02*
X178720000Y-86360000D01*
X176530000Y-78740000D02*
X176530000Y-83820000D01*
X176250000Y-75920000D02*
X177800000Y-75920000D01*
X179070000Y-76200000D02*
X179070000Y-78740000D01*
X179070000Y-78740000D02*
X176530000Y-78740000D01*
X176530000Y-83820000D02*
X181610000Y-83820000D01*
X181610000Y-83820000D02*
X181610000Y-78740000D01*
X176250000Y-75920000D02*
X176250000Y-77470000D01*
X181610000Y-76200000D02*
X179070000Y-76200000D01*
X181610000Y-78740000D02*
X181610000Y-76200000D01*
X173420000Y-78610000D02*
X173420000Y-81410000D01*
X173420000Y-81410000D02*
X172020000Y-81410000D01*
X172020000Y-81410000D02*
X172020000Y-78610000D01*
X172020000Y-78610000D02*
X173420000Y-78610000D01*
X174470000Y-83010000D02*
X173820000Y-83010000D01*
X170970000Y-83010000D02*
X171620000Y-83010000D01*
X171620000Y-77010000D02*
X170970000Y-77010000D01*
X174470000Y-77010000D02*
X173820000Y-77010000D01*
X174470000Y-83010000D02*
X174470000Y-77010000D01*
X170970000Y-77010000D02*
X170970000Y-83010000D01*
X160650000Y-82085000D02*
X160675000Y-82085000D01*
X160650000Y-77935000D02*
X160765000Y-77935000D01*
X169550000Y-77935000D02*
X169435000Y-77935000D01*
X169550000Y-82085000D02*
X169435000Y-82085000D01*
X160650000Y-82085000D02*
X160650000Y-77935000D01*
X169550000Y-82085000D02*
X169550000Y-77935000D01*
X160675000Y-82085000D02*
X160675000Y-83460000D01*
X159107143Y-80176666D02*
X159154762Y-80224285D01*
X159202381Y-80367142D01*
X159202381Y-80462380D01*
X159154762Y-80605238D01*
X159059524Y-80700476D01*
X158964286Y-80748095D01*
X158773810Y-80795714D01*
X158630952Y-80795714D01*
X158440476Y-80748095D01*
X158345238Y-80700476D01*
X158250000Y-80605238D01*
X158202381Y-80462380D01*
X158202381Y-80367142D01*
X158250000Y-80224285D01*
X158297619Y-80176666D01*
X158297619Y-79795714D02*
X158250000Y-79748095D01*
X158202381Y-79652857D01*
X158202381Y-79414761D01*
X158250000Y-79319523D01*
X158297619Y-79271904D01*
X158392857Y-79224285D01*
X158488095Y-79224285D01*
X158630952Y-79271904D01*
X159202381Y-79843333D01*
X159202381Y-79224285D01*
X161988952Y-80176667D02*
X162465143Y-80176667D01*
X161893714Y-80462381D02*
X162227047Y-79462381D01*
X162560381Y-80462381D01*
X162750857Y-79462381D02*
X163322286Y-79462381D01*
X163036571Y-80462381D02*
X163036571Y-79462381D01*
X163512762Y-79462381D02*
X164084191Y-79462381D01*
X163798476Y-80462381D02*
X163798476Y-79462381D01*
X164417524Y-80462381D02*
X164417524Y-79462381D01*
X164893714Y-80462381D02*
X164893714Y-79462381D01*
X165465143Y-80462381D01*
X165465143Y-79462381D01*
X166131809Y-79986190D02*
X166131809Y-80462381D01*
X165798476Y-79462381D02*
X166131809Y-79986190D01*
X166465143Y-79462381D01*
X166941333Y-79890952D02*
X166846095Y-79843333D01*
X166798476Y-79795714D01*
X166750857Y-79700476D01*
X166750857Y-79652857D01*
X166798476Y-79557619D01*
X166846095Y-79510000D01*
X166941333Y-79462381D01*
X167131810Y-79462381D01*
X167227048Y-79510000D01*
X167274667Y-79557619D01*
X167322286Y-79652857D01*
X167322286Y-79700476D01*
X167274667Y-79795714D01*
X167227048Y-79843333D01*
X167131810Y-79890952D01*
X166941333Y-79890952D01*
X166846095Y-79938571D01*
X166798476Y-79986190D01*
X166750857Y-80081429D01*
X166750857Y-80271905D01*
X166798476Y-80367143D01*
X166846095Y-80414762D01*
X166941333Y-80462381D01*
X167131810Y-80462381D01*
X167227048Y-80414762D01*
X167274667Y-80367143D01*
X167322286Y-80271905D01*
X167322286Y-80081429D01*
X167274667Y-79986190D01*
X167227048Y-79938571D01*
X167131810Y-79890952D01*
X168179429Y-79795714D02*
X168179429Y-80462381D01*
X167941333Y-79414762D02*
X167703238Y-80129048D01*
X168322286Y-80129048D01*
X169227048Y-80462381D02*
X168655619Y-80462381D01*
X168941333Y-80462381D02*
X168941333Y-79462381D01*
X168846095Y-79605238D01*
X168750857Y-79700476D01*
X168655619Y-79748095D01*
M02*
