G04 #@! TF.FileFunction,Copper,L1,Top,Signal*
%FSLAX46Y46*%
G04 Gerber Fmt 4.6, Leading zero omitted, Abs format (unit mm)*
G04 Created by KiCad (PCBNEW 4.0.5+dfsg1-4) date Tue May  1 22:16:52 2018*
%MOMM*%
%LPD*%
G01*
G04 APERTURE LIST*
%ADD10C,0.100000*%
%ADD11R,1.727200X1.727200*%
%ADD12O,1.727200X1.727200*%
%ADD13R,1.600000X2.000000*%
%ADD14R,1.198880X1.198880*%
%ADD15R,1.727200X2.032000*%
%ADD16O,1.727200X2.032000*%
%ADD17R,1.600000X2.180000*%
%ADD18R,0.600000X1.500000*%
%ADD19C,0.600000*%
%ADD20C,0.250000*%
%ADD21C,0.254000*%
G04 APERTURE END LIST*
D10*
D11*
X184150000Y-90170000D03*
D12*
X186690000Y-90170000D03*
X184150000Y-92710000D03*
X186690000Y-92710000D03*
X184150000Y-95250000D03*
X186690000Y-95250000D03*
D13*
X170180000Y-94710000D03*
X170180000Y-90710000D03*
D14*
X195580000Y-86580980D03*
X195580000Y-88679020D03*
X195580000Y-96740980D03*
X195580000Y-98839020D03*
D15*
X171450000Y-99060000D03*
D16*
X173990000Y-99060000D03*
X176530000Y-99060000D03*
X179070000Y-99060000D03*
X181610000Y-99060000D03*
X184150000Y-99060000D03*
X186690000Y-99060000D03*
D15*
X171450000Y-86360000D03*
D16*
X173990000Y-86360000D03*
X176530000Y-86360000D03*
X179070000Y-86360000D03*
X181610000Y-86360000D03*
X184150000Y-86360000D03*
X186690000Y-86360000D03*
D17*
X191772320Y-88107570D03*
X191767680Y-97312430D03*
D18*
X172720000Y-95410000D03*
X173990000Y-95410000D03*
X175260000Y-95410000D03*
X176530000Y-95410000D03*
X177800000Y-95410000D03*
X179070000Y-95410000D03*
X180340000Y-95410000D03*
X180340000Y-90010000D03*
X179070000Y-90010000D03*
X177800000Y-90010000D03*
X176530000Y-90010000D03*
X175260000Y-90010000D03*
X173990000Y-90010000D03*
X172720000Y-90010000D03*
D19*
X180848000Y-92964000D03*
X182880000Y-93980000D03*
X188595000Y-90805000D03*
X171450000Y-88900000D03*
X195580000Y-90170000D03*
X193294000Y-98298000D03*
X172466000Y-94234000D03*
X191770000Y-94742000D03*
X188468000Y-96520000D03*
X188722000Y-94742000D03*
X171958000Y-92202000D03*
D20*
X181864000Y-92964000D02*
X180848000Y-92964000D01*
X182880000Y-93980000D02*
X181864000Y-92964000D01*
X195580000Y-96740980D02*
X195580000Y-96520000D01*
X195580000Y-96520000D02*
X193040000Y-93980000D01*
X193040000Y-93980000D02*
X191770000Y-93980000D01*
X191770000Y-93980000D02*
X188595000Y-90805000D01*
X195580000Y-86580980D02*
X193298910Y-86580980D01*
X193298910Y-86580980D02*
X191772320Y-88107570D01*
X188595000Y-90805000D02*
X188595000Y-88265000D01*
X188595000Y-88265000D02*
X189230000Y-87630000D01*
X189230000Y-87630000D02*
X191294750Y-87630000D01*
X191294750Y-87630000D02*
X191772320Y-88107570D01*
X171450000Y-88900000D02*
X172720000Y-88900000D01*
X170180000Y-90710000D02*
X172020000Y-90710000D01*
X172020000Y-90710000D02*
X172720000Y-90010000D01*
X172720000Y-90010000D02*
X172720000Y-88900000D01*
X171450000Y-87630000D02*
X171450000Y-86360000D01*
X172720000Y-88900000D02*
X171450000Y-87630000D01*
X195580000Y-90170000D02*
X195580000Y-88679020D01*
X195580000Y-98839020D02*
X193835020Y-98839020D01*
X193835020Y-98839020D02*
X193294000Y-98298000D01*
X172720000Y-95410000D02*
X172720000Y-94488000D01*
X172720000Y-94488000D02*
X172466000Y-94234000D01*
X173990000Y-95410000D02*
X173990000Y-99060000D01*
X175260000Y-95410000D02*
X175260000Y-97790000D01*
X175260000Y-97790000D02*
X176530000Y-99060000D01*
X191767680Y-97312430D02*
X186212430Y-97312430D01*
X186212430Y-97312430D02*
X184150000Y-95250000D01*
X191767680Y-94744320D02*
X191767680Y-97312430D01*
X191770000Y-94742000D02*
X191767680Y-94744320D01*
X184150000Y-95250000D02*
X183134000Y-95250000D01*
X183134000Y-95250000D02*
X181610000Y-93726000D01*
X181610000Y-93726000D02*
X177038000Y-93726000D01*
X177038000Y-93726000D02*
X176530000Y-94234000D01*
X176530000Y-94234000D02*
X176530000Y-95410000D01*
X176530000Y-95410000D02*
X176530000Y-96774000D01*
X177800000Y-97790000D02*
X179070000Y-99060000D01*
X177546000Y-97790000D02*
X177800000Y-97790000D01*
X176530000Y-96774000D02*
X177546000Y-97790000D01*
X177800000Y-95410000D02*
X177800000Y-96520000D01*
X179832000Y-97282000D02*
X181610000Y-99060000D01*
X178562000Y-97282000D02*
X179832000Y-97282000D01*
X177800000Y-96520000D02*
X178562000Y-97282000D01*
X179070000Y-95410000D02*
X179070000Y-96266000D01*
X181864000Y-96774000D02*
X184150000Y-99060000D01*
X179578000Y-96774000D02*
X181864000Y-96774000D01*
X179070000Y-96266000D02*
X179578000Y-96774000D01*
X186690000Y-92710000D02*
X188722000Y-92710000D01*
X189992000Y-94996000D02*
X188468000Y-96520000D01*
X189992000Y-93980000D02*
X189992000Y-94996000D01*
X188722000Y-92710000D02*
X189992000Y-93980000D01*
X180340000Y-95410000D02*
X181770000Y-95410000D01*
X184912000Y-97282000D02*
X186690000Y-99060000D01*
X183642000Y-97282000D02*
X184912000Y-97282000D01*
X181770000Y-95410000D02*
X183642000Y-97282000D01*
X173990000Y-90010000D02*
X173990000Y-86360000D01*
X175260000Y-90010000D02*
X175260000Y-87630000D01*
X175260000Y-87630000D02*
X176530000Y-86360000D01*
X179070000Y-86360000D02*
X178816000Y-86360000D01*
X178816000Y-86360000D02*
X176530000Y-88646000D01*
X176530000Y-88646000D02*
X176530000Y-90010000D01*
X177800000Y-90010000D02*
X177800000Y-88900000D01*
X179578000Y-88138000D02*
X181356000Y-86360000D01*
X178562000Y-88138000D02*
X179578000Y-88138000D01*
X177800000Y-88900000D02*
X178562000Y-88138000D01*
X181356000Y-86360000D02*
X181610000Y-86360000D01*
X184150000Y-92710000D02*
X183642000Y-92710000D01*
X183642000Y-92710000D02*
X182372000Y-91440000D01*
X179832000Y-91440000D02*
X179070000Y-90678000D01*
X182372000Y-91440000D02*
X179832000Y-91440000D01*
X179070000Y-90678000D02*
X179070000Y-90010000D01*
X184150000Y-92710000D02*
X185420000Y-93980000D01*
X187960000Y-93980000D02*
X188722000Y-94742000D01*
X185420000Y-93980000D02*
X187960000Y-93980000D01*
X179070000Y-90010000D02*
X179070000Y-89154000D01*
X182372000Y-88138000D02*
X184150000Y-86360000D01*
X180594000Y-88138000D02*
X182372000Y-88138000D01*
X180086000Y-88646000D02*
X180594000Y-88138000D01*
X179578000Y-88646000D02*
X180086000Y-88646000D01*
X179070000Y-89154000D02*
X179578000Y-88646000D01*
X186690000Y-86360000D02*
X186690000Y-87630000D01*
X186690000Y-87630000D02*
X184150000Y-90170000D01*
X180340000Y-90010000D02*
X183990000Y-90010000D01*
X183990000Y-90010000D02*
X184150000Y-90170000D01*
X170180000Y-93980000D02*
X171958000Y-92202000D01*
X170180000Y-94710000D02*
X170180000Y-93980000D01*
X171958000Y-92202000D02*
X170180000Y-93980000D01*
D21*
G36*
X178518110Y-91356431D02*
X178713119Y-91395921D01*
X179294599Y-91977401D01*
X179541161Y-92142148D01*
X179832000Y-92200000D01*
X180289889Y-92200000D01*
X180055808Y-92433673D01*
X179913162Y-92777201D01*
X179912998Y-92966000D01*
X177038000Y-92966000D01*
X176747161Y-93023852D01*
X176612890Y-93113569D01*
X176500599Y-93188599D01*
X175992599Y-93696599D01*
X175827852Y-93943161D01*
X175804210Y-94062014D01*
X175560000Y-94012560D01*
X174960000Y-94012560D01*
X174724683Y-94056838D01*
X174625472Y-94120678D01*
X174541890Y-94063569D01*
X174290000Y-94012560D01*
X173690000Y-94012560D01*
X173454683Y-94056838D01*
X173364020Y-94115178D01*
X173146310Y-94025000D01*
X173005750Y-94025000D01*
X172847000Y-94183750D01*
X172847000Y-95283000D01*
X172867000Y-95283000D01*
X172867000Y-95537000D01*
X172847000Y-95537000D01*
X172847000Y-96636250D01*
X173005750Y-96795000D01*
X173146310Y-96795000D01*
X173230000Y-96760334D01*
X173230000Y-97615352D01*
X172930330Y-97815585D01*
X172920757Y-97829913D01*
X172916762Y-97808683D01*
X172777690Y-97592559D01*
X172565490Y-97447569D01*
X172313600Y-97396560D01*
X170586400Y-97396560D01*
X170351083Y-97440838D01*
X170134959Y-97579910D01*
X169989969Y-97792110D01*
X169938960Y-98044000D01*
X169938960Y-99620000D01*
X169620000Y-99620000D01*
X169620000Y-96357440D01*
X170980000Y-96357440D01*
X171215317Y-96313162D01*
X171431441Y-96174090D01*
X171576431Y-95961890D01*
X171627440Y-95710000D01*
X171627440Y-95695750D01*
X171785000Y-95695750D01*
X171785000Y-96286309D01*
X171881673Y-96519698D01*
X172060301Y-96698327D01*
X172293690Y-96795000D01*
X172434250Y-96795000D01*
X172593000Y-96636250D01*
X172593000Y-95537000D01*
X171943750Y-95537000D01*
X171785000Y-95695750D01*
X171627440Y-95695750D01*
X171627440Y-94533691D01*
X171785000Y-94533691D01*
X171785000Y-95124250D01*
X171943750Y-95283000D01*
X172593000Y-95283000D01*
X172593000Y-94183750D01*
X172434250Y-94025000D01*
X172293690Y-94025000D01*
X172060301Y-94121673D01*
X171881673Y-94300302D01*
X171785000Y-94533691D01*
X171627440Y-94533691D01*
X171627440Y-93710000D01*
X171611186Y-93623616D01*
X172097680Y-93137122D01*
X172143167Y-93137162D01*
X172486943Y-92995117D01*
X172750192Y-92732327D01*
X172892838Y-92388799D01*
X172893162Y-92016833D01*
X172751117Y-91673057D01*
X172488327Y-91409808D01*
X172482624Y-91407440D01*
X173020000Y-91407440D01*
X173255317Y-91363162D01*
X173354528Y-91299322D01*
X173438110Y-91356431D01*
X173690000Y-91407440D01*
X174290000Y-91407440D01*
X174525317Y-91363162D01*
X174624528Y-91299322D01*
X174708110Y-91356431D01*
X174960000Y-91407440D01*
X175560000Y-91407440D01*
X175795317Y-91363162D01*
X175894528Y-91299322D01*
X175978110Y-91356431D01*
X176230000Y-91407440D01*
X176830000Y-91407440D01*
X177065317Y-91363162D01*
X177164528Y-91299322D01*
X177248110Y-91356431D01*
X177500000Y-91407440D01*
X178100000Y-91407440D01*
X178335317Y-91363162D01*
X178434528Y-91299322D01*
X178518110Y-91356431D01*
X178518110Y-91356431D01*
G37*
X178518110Y-91356431D02*
X178713119Y-91395921D01*
X179294599Y-91977401D01*
X179541161Y-92142148D01*
X179832000Y-92200000D01*
X180289889Y-92200000D01*
X180055808Y-92433673D01*
X179913162Y-92777201D01*
X179912998Y-92966000D01*
X177038000Y-92966000D01*
X176747161Y-93023852D01*
X176612890Y-93113569D01*
X176500599Y-93188599D01*
X175992599Y-93696599D01*
X175827852Y-93943161D01*
X175804210Y-94062014D01*
X175560000Y-94012560D01*
X174960000Y-94012560D01*
X174724683Y-94056838D01*
X174625472Y-94120678D01*
X174541890Y-94063569D01*
X174290000Y-94012560D01*
X173690000Y-94012560D01*
X173454683Y-94056838D01*
X173364020Y-94115178D01*
X173146310Y-94025000D01*
X173005750Y-94025000D01*
X172847000Y-94183750D01*
X172847000Y-95283000D01*
X172867000Y-95283000D01*
X172867000Y-95537000D01*
X172847000Y-95537000D01*
X172847000Y-96636250D01*
X173005750Y-96795000D01*
X173146310Y-96795000D01*
X173230000Y-96760334D01*
X173230000Y-97615352D01*
X172930330Y-97815585D01*
X172920757Y-97829913D01*
X172916762Y-97808683D01*
X172777690Y-97592559D01*
X172565490Y-97447569D01*
X172313600Y-97396560D01*
X170586400Y-97396560D01*
X170351083Y-97440838D01*
X170134959Y-97579910D01*
X169989969Y-97792110D01*
X169938960Y-98044000D01*
X169938960Y-99620000D01*
X169620000Y-99620000D01*
X169620000Y-96357440D01*
X170980000Y-96357440D01*
X171215317Y-96313162D01*
X171431441Y-96174090D01*
X171576431Y-95961890D01*
X171627440Y-95710000D01*
X171627440Y-95695750D01*
X171785000Y-95695750D01*
X171785000Y-96286309D01*
X171881673Y-96519698D01*
X172060301Y-96698327D01*
X172293690Y-96795000D01*
X172434250Y-96795000D01*
X172593000Y-96636250D01*
X172593000Y-95537000D01*
X171943750Y-95537000D01*
X171785000Y-95695750D01*
X171627440Y-95695750D01*
X171627440Y-94533691D01*
X171785000Y-94533691D01*
X171785000Y-95124250D01*
X171943750Y-95283000D01*
X172593000Y-95283000D01*
X172593000Y-94183750D01*
X172434250Y-94025000D01*
X172293690Y-94025000D01*
X172060301Y-94121673D01*
X171881673Y-94300302D01*
X171785000Y-94533691D01*
X171627440Y-94533691D01*
X171627440Y-93710000D01*
X171611186Y-93623616D01*
X172097680Y-93137122D01*
X172143167Y-93137162D01*
X172486943Y-92995117D01*
X172750192Y-92732327D01*
X172892838Y-92388799D01*
X172893162Y-92016833D01*
X172751117Y-91673057D01*
X172488327Y-91409808D01*
X172482624Y-91407440D01*
X173020000Y-91407440D01*
X173255317Y-91363162D01*
X173354528Y-91299322D01*
X173438110Y-91356431D01*
X173690000Y-91407440D01*
X174290000Y-91407440D01*
X174525317Y-91363162D01*
X174624528Y-91299322D01*
X174708110Y-91356431D01*
X174960000Y-91407440D01*
X175560000Y-91407440D01*
X175795317Y-91363162D01*
X175894528Y-91299322D01*
X175978110Y-91356431D01*
X176230000Y-91407440D01*
X176830000Y-91407440D01*
X177065317Y-91363162D01*
X177164528Y-91299322D01*
X177248110Y-91356431D01*
X177500000Y-91407440D01*
X178100000Y-91407440D01*
X178335317Y-91363162D01*
X178434528Y-91299322D01*
X178518110Y-91356431D01*
G36*
X186817000Y-90043000D02*
X186837000Y-90043000D01*
X186837000Y-90297000D01*
X186817000Y-90297000D01*
X186817000Y-90317000D01*
X186563000Y-90317000D01*
X186563000Y-90297000D01*
X186543000Y-90297000D01*
X186543000Y-90043000D01*
X186563000Y-90043000D01*
X186563000Y-90023000D01*
X186817000Y-90023000D01*
X186817000Y-90043000D01*
X186817000Y-90043000D01*
G37*
X186817000Y-90043000D02*
X186837000Y-90043000D01*
X186837000Y-90297000D01*
X186817000Y-90297000D01*
X186817000Y-90317000D01*
X186563000Y-90317000D01*
X186563000Y-90297000D01*
X186543000Y-90297000D01*
X186543000Y-90043000D01*
X186563000Y-90043000D01*
X186563000Y-90023000D01*
X186817000Y-90023000D01*
X186817000Y-90043000D01*
M02*
