G04 #@! TF.FileFunction,Legend,Bot*
%FSLAX46Y46*%
G04 Gerber Fmt 4.6, Leading zero omitted, Abs format (unit mm)*
G04 Created by KiCad (PCBNEW 4.0.5+dfsg1-4) date Sun Apr 15 21:38:30 2018*
%MOMM*%
%LPD*%
G01*
G04 APERTURE LIST*
%ADD10C,0.100000*%
%ADD11C,0.150000*%
%ADD12C,0.120000*%
G04 APERTURE END LIST*
D10*
D11*
X159775000Y-79010000D02*
X159775000Y-81010000D01*
X157725000Y-81010000D02*
X157725000Y-79010000D01*
X158750000Y-87630000D02*
X173990000Y-87630000D01*
X173990000Y-87630000D02*
X173990000Y-85090000D01*
X173990000Y-85090000D02*
X158750000Y-85090000D01*
X155930000Y-87910000D02*
X157480000Y-87910000D01*
X158750000Y-87630000D02*
X158750000Y-85090000D01*
X157480000Y-84810000D02*
X155930000Y-84810000D01*
X155930000Y-84810000D02*
X155930000Y-87910000D01*
X158750000Y-74930000D02*
X173990000Y-74930000D01*
X173990000Y-74930000D02*
X173990000Y-72390000D01*
X173990000Y-72390000D02*
X158750000Y-72390000D01*
X155930000Y-75210000D02*
X157480000Y-75210000D01*
X158750000Y-74930000D02*
X158750000Y-72390000D01*
X157480000Y-72110000D02*
X155930000Y-72110000D01*
X155930000Y-72110000D02*
X155930000Y-75210000D01*
X172050000Y-79135000D02*
X170850000Y-79135000D01*
X170850000Y-80885000D02*
X172050000Y-80885000D01*
X178216000Y-75297000D02*
X179416000Y-75297000D01*
X179416000Y-73547000D02*
X178216000Y-73547000D01*
X177384000Y-85485000D02*
X176184000Y-85485000D01*
X176184000Y-87235000D02*
X177384000Y-87235000D01*
D12*
X164340000Y-81590000D02*
X164340000Y-80660000D01*
X164340000Y-78430000D02*
X164340000Y-79360000D01*
X164340000Y-78430000D02*
X167500000Y-78430000D01*
X164340000Y-81590000D02*
X165800000Y-81590000D01*
D11*
X159107143Y-79843334D02*
X159154762Y-79795715D01*
X159202381Y-79652858D01*
X159202381Y-79557620D01*
X159154762Y-79414762D01*
X159059524Y-79319524D01*
X158964286Y-79271905D01*
X158773810Y-79224286D01*
X158630952Y-79224286D01*
X158440476Y-79271905D01*
X158345238Y-79319524D01*
X158250000Y-79414762D01*
X158202381Y-79557620D01*
X158202381Y-79652858D01*
X158250000Y-79795715D01*
X158297619Y-79843334D01*
X159202381Y-80795715D02*
X159202381Y-80224286D01*
X159202381Y-80510000D02*
X158202381Y-80510000D01*
X158345238Y-80414762D01*
X158440476Y-80319524D01*
X158488095Y-80224286D01*
X152832381Y-85621905D02*
X151832381Y-85621905D01*
X151832381Y-86002858D01*
X151880000Y-86098096D01*
X151927619Y-86145715D01*
X152022857Y-86193334D01*
X152165714Y-86193334D01*
X152260952Y-86145715D01*
X152308571Y-86098096D01*
X152356190Y-86002858D01*
X152356190Y-85621905D01*
X151927619Y-86574286D02*
X151880000Y-86621905D01*
X151832381Y-86717143D01*
X151832381Y-86955239D01*
X151880000Y-87050477D01*
X151927619Y-87098096D01*
X152022857Y-87145715D01*
X152118095Y-87145715D01*
X152260952Y-87098096D01*
X152832381Y-86526667D01*
X152832381Y-87145715D01*
X152832381Y-72921905D02*
X151832381Y-72921905D01*
X151832381Y-73302858D01*
X151880000Y-73398096D01*
X151927619Y-73445715D01*
X152022857Y-73493334D01*
X152165714Y-73493334D01*
X152260952Y-73445715D01*
X152308571Y-73398096D01*
X152356190Y-73302858D01*
X152356190Y-72921905D01*
X151832381Y-73826667D02*
X151832381Y-74445715D01*
X152213333Y-74112381D01*
X152213333Y-74255239D01*
X152260952Y-74350477D01*
X152308571Y-74398096D01*
X152403810Y-74445715D01*
X152641905Y-74445715D01*
X152737143Y-74398096D01*
X152784762Y-74350477D01*
X152832381Y-74255239D01*
X152832381Y-73969524D01*
X152784762Y-73874286D01*
X152737143Y-73826667D01*
X171616666Y-80462381D02*
X171950000Y-79986190D01*
X172188095Y-80462381D02*
X172188095Y-79462381D01*
X171807142Y-79462381D01*
X171711904Y-79510000D01*
X171664285Y-79557619D01*
X171616666Y-79652857D01*
X171616666Y-79795714D01*
X171664285Y-79890952D01*
X171711904Y-79938571D01*
X171807142Y-79986190D01*
X172188095Y-79986190D01*
X170664285Y-80462381D02*
X171235714Y-80462381D01*
X170950000Y-80462381D02*
X170950000Y-79462381D01*
X171045238Y-79605238D01*
X171140476Y-79700476D01*
X171235714Y-79748095D01*
X178982666Y-74874381D02*
X179316000Y-74398190D01*
X179554095Y-74874381D02*
X179554095Y-73874381D01*
X179173142Y-73874381D01*
X179077904Y-73922000D01*
X179030285Y-73969619D01*
X178982666Y-74064857D01*
X178982666Y-74207714D01*
X179030285Y-74302952D01*
X179077904Y-74350571D01*
X179173142Y-74398190D01*
X179554095Y-74398190D01*
X178601714Y-73969619D02*
X178554095Y-73922000D01*
X178458857Y-73874381D01*
X178220761Y-73874381D01*
X178125523Y-73922000D01*
X178077904Y-73969619D01*
X178030285Y-74064857D01*
X178030285Y-74160095D01*
X178077904Y-74302952D01*
X178649333Y-74874381D01*
X178030285Y-74874381D01*
X176950666Y-86812381D02*
X177284000Y-86336190D01*
X177522095Y-86812381D02*
X177522095Y-85812381D01*
X177141142Y-85812381D01*
X177045904Y-85860000D01*
X176998285Y-85907619D01*
X176950666Y-86002857D01*
X176950666Y-86145714D01*
X176998285Y-86240952D01*
X177045904Y-86288571D01*
X177141142Y-86336190D01*
X177522095Y-86336190D01*
X176617333Y-85812381D02*
X175998285Y-85812381D01*
X176331619Y-86193333D01*
X176188761Y-86193333D01*
X176093523Y-86240952D01*
X176045904Y-86288571D01*
X175998285Y-86383810D01*
X175998285Y-86621905D01*
X176045904Y-86717143D01*
X176093523Y-86764762D01*
X176188761Y-86812381D01*
X176474476Y-86812381D01*
X176569714Y-86764762D01*
X176617333Y-86717143D01*
X167131905Y-79462381D02*
X167131905Y-80271905D01*
X167084286Y-80367143D01*
X167036667Y-80414762D01*
X166941429Y-80462381D01*
X166750952Y-80462381D01*
X166655714Y-80414762D01*
X166608095Y-80367143D01*
X166560476Y-80271905D01*
X166560476Y-79462381D01*
X165560476Y-80462381D02*
X166131905Y-80462381D01*
X165846191Y-80462381D02*
X165846191Y-79462381D01*
X165941429Y-79605238D01*
X166036667Y-79700476D01*
X166131905Y-79748095D01*
M02*
