M48
;DRILL file {KiCad 4.0.5+dfsg1-4} date Tue Apr 17 10:08:59 2018
;FORMAT={-:-/ absolute / metric / decimal}
FMAT,2
METRIC,TZ
T1C0.400
T2C1.016
%
G90
G05
M71
T1
X157.48Y-76.2
X161.29Y-80.264
X165.1Y-78.994
X169.418Y-75.692
X170.688Y-78.486
X172.72Y-81.28
X174.244Y-77.216
X174.498Y-80.772
X174.498Y-82.55
X175.768Y-73.66
X176.276Y-84.328
X178.054Y-85.09
X179.07Y-75.692
X180.086Y-72.644
X180.34Y-85.09
T2
X157.48Y-73.66
X157.48Y-86.36
X160.02Y-73.66
X160.02Y-86.36
X162.56Y-73.66
X162.56Y-86.36
X165.1Y-73.66
X165.1Y-86.36
X167.64Y-73.66
X167.64Y-86.36
X170.18Y-73.66
X170.18Y-86.36
X172.72Y-73.66
X172.72Y-86.36
X177.8Y-77.47
X177.8Y-80.01
X177.8Y-82.55
X180.34Y-77.47
X180.34Y-80.01
X180.34Y-82.55
T0
M30
