G04 #@! TF.FileFunction,Copper,L2,Bot,Signal*
%FSLAX46Y46*%
G04 Gerber Fmt 4.6, Leading zero omitted, Abs format (unit mm)*
G04 Created by KiCad (PCBNEW 4.0.5+dfsg1-4) date Sun Apr 15 21:38:30 2018*
%MOMM*%
%LPD*%
G01*
G04 APERTURE LIST*
%ADD10C,0.100000*%
%ADD11R,1.600000X2.000000*%
%ADD12R,2.032000X2.032000*%
%ADD13O,2.032000X2.032000*%
%ADD14R,1.727200X2.032000*%
%ADD15O,1.727200X2.032000*%
%ADD16R,1.727200X1.727200*%
%ADD17O,1.727200X1.727200*%
%ADD18R,1.500000X1.300000*%
%ADD19R,1.900000X0.800000*%
%ADD20C,0.600000*%
%ADD21C,0.250000*%
%ADD22C,0.254000*%
G04 APERTURE END LIST*
D10*
D11*
X158750000Y-82010000D03*
X158750000Y-78010000D03*
D12*
X154940000Y-81280000D03*
D13*
X154940000Y-78740000D03*
D14*
X157480000Y-86360000D03*
D15*
X160020000Y-86360000D03*
X162560000Y-86360000D03*
X165100000Y-86360000D03*
X167640000Y-86360000D03*
X170180000Y-86360000D03*
X172720000Y-86360000D03*
D14*
X157480000Y-73660000D03*
D15*
X160020000Y-73660000D03*
X162560000Y-73660000D03*
X165100000Y-73660000D03*
X167640000Y-73660000D03*
X170180000Y-73660000D03*
X172720000Y-73660000D03*
D16*
X177800000Y-77470000D03*
D17*
X180340000Y-77470000D03*
X177800000Y-80010000D03*
X180340000Y-80010000D03*
X177800000Y-82550000D03*
X180340000Y-82550000D03*
D18*
X170100000Y-80010000D03*
X172800000Y-80010000D03*
X180166000Y-74422000D03*
X177466000Y-74422000D03*
X175434000Y-86360000D03*
X178134000Y-86360000D03*
D19*
X166600000Y-79060000D03*
X166600000Y-80960000D03*
X163600000Y-80010000D03*
D20*
X161290000Y-80264000D03*
X179070000Y-75692000D03*
X180340000Y-85090000D03*
X170688000Y-78486000D03*
X174244000Y-77216000D03*
X175768000Y-73660000D03*
X157480000Y-76200000D03*
X180086000Y-72644000D03*
X178054000Y-85090000D03*
X174498000Y-80772000D03*
X165100000Y-78994000D03*
X174498000Y-82550000D03*
X172720000Y-81280000D03*
X176276000Y-84328000D03*
X169418000Y-75692000D03*
D21*
X161544000Y-80010000D02*
X163600000Y-80010000D01*
X161290000Y-80264000D02*
X161544000Y-80010000D01*
X177466000Y-73994000D02*
X178816000Y-72644000D01*
X178816000Y-72644000D02*
X180086000Y-72644000D01*
X177466000Y-74422000D02*
X177466000Y-73994000D01*
X178134000Y-85170000D02*
X178134000Y-86360000D01*
X178054000Y-85090000D02*
X178134000Y-85170000D01*
X180166000Y-74422000D02*
X180166000Y-77296000D01*
X180166000Y-77296000D02*
X180340000Y-77470000D01*
X166600000Y-79060000D02*
X165166000Y-79060000D01*
X165166000Y-79060000D02*
X165100000Y-78994000D01*
X170100000Y-80010000D02*
X168910000Y-80010000D01*
X167960000Y-79060000D02*
X167640000Y-79060000D01*
X167640000Y-79060000D02*
X166600000Y-79060000D01*
X168910000Y-80010000D02*
X167960000Y-79060000D01*
X167132000Y-84328000D02*
X165100000Y-86360000D01*
X172720000Y-84328000D02*
X167132000Y-84328000D01*
X174498000Y-82550000D02*
X172720000Y-84328000D01*
X172800000Y-80010000D02*
X172800000Y-81200000D01*
X172800000Y-81200000D02*
X172720000Y-81280000D01*
X180340000Y-80010000D02*
X179070000Y-81280000D01*
X178054000Y-84328000D02*
X176276000Y-84328000D01*
X179070000Y-83312000D02*
X178054000Y-84328000D01*
X179070000Y-81280000D02*
X179070000Y-83312000D01*
X176276000Y-81026000D02*
X176784000Y-81026000D01*
X173482000Y-78232000D02*
X176276000Y-81026000D01*
X171958000Y-78232000D02*
X173482000Y-78232000D01*
X171196000Y-77470000D02*
X171958000Y-78232000D01*
X169418000Y-75692000D02*
X171196000Y-77470000D01*
X175434000Y-86360000D02*
X175434000Y-82376000D01*
X175434000Y-82376000D02*
X176784000Y-81026000D01*
X176784000Y-81026000D02*
X177800000Y-80010000D01*
D22*
G36*
X180467000Y-82423000D02*
X180487000Y-82423000D01*
X180487000Y-82677000D01*
X180467000Y-82677000D01*
X180467000Y-83884469D01*
X180699027Y-84004968D01*
X181154000Y-83791733D01*
X181154000Y-86920000D01*
X179531440Y-86920000D01*
X179531440Y-85710000D01*
X179487162Y-85474683D01*
X179348090Y-85258559D01*
X179135890Y-85113569D01*
X178989006Y-85083824D01*
X178989162Y-84904833D01*
X178861335Y-84595467D01*
X179607401Y-83849401D01*
X179617332Y-83834538D01*
X179980973Y-84004968D01*
X180213000Y-83884469D01*
X180213000Y-82677000D01*
X180193000Y-82677000D01*
X180193000Y-82423000D01*
X180213000Y-82423000D01*
X180213000Y-82403000D01*
X180467000Y-82403000D01*
X180467000Y-82423000D01*
X180467000Y-82423000D01*
G37*
X180467000Y-82423000D02*
X180487000Y-82423000D01*
X180487000Y-82677000D01*
X180467000Y-82677000D01*
X180467000Y-83884469D01*
X180699027Y-84004968D01*
X181154000Y-83791733D01*
X181154000Y-86920000D01*
X179531440Y-86920000D01*
X179531440Y-85710000D01*
X179487162Y-85474683D01*
X179348090Y-85258559D01*
X179135890Y-85113569D01*
X178989006Y-85083824D01*
X178989162Y-84904833D01*
X178861335Y-84595467D01*
X179607401Y-83849401D01*
X179617332Y-83834538D01*
X179980973Y-84004968D01*
X180213000Y-83884469D01*
X180213000Y-82677000D01*
X180193000Y-82677000D01*
X180193000Y-82423000D01*
X180213000Y-82423000D01*
X180213000Y-82403000D01*
X180467000Y-82403000D01*
X180467000Y-82423000D01*
G36*
X155981400Y-73374250D02*
X156140150Y-73533000D01*
X157353000Y-73533000D01*
X157353000Y-73513000D01*
X157607000Y-73513000D01*
X157607000Y-73533000D01*
X157627000Y-73533000D01*
X157627000Y-73787000D01*
X157607000Y-73787000D01*
X157607000Y-75152250D01*
X157765750Y-75311000D01*
X158469910Y-75311000D01*
X158703299Y-75214327D01*
X158881927Y-75035698D01*
X158945500Y-74882220D01*
X158960330Y-74904415D01*
X159446511Y-75229271D01*
X160020000Y-75343345D01*
X160593489Y-75229271D01*
X161079670Y-74904415D01*
X161290000Y-74589634D01*
X161500330Y-74904415D01*
X161986511Y-75229271D01*
X162560000Y-75343345D01*
X163133489Y-75229271D01*
X163619670Y-74904415D01*
X163830000Y-74589634D01*
X164040330Y-74904415D01*
X164526511Y-75229271D01*
X165100000Y-75343345D01*
X165673489Y-75229271D01*
X166159670Y-74904415D01*
X166370000Y-74589634D01*
X166580330Y-74904415D01*
X167066511Y-75229271D01*
X167640000Y-75343345D01*
X168213489Y-75229271D01*
X168699670Y-74904415D01*
X168910000Y-74589634D01*
X169067397Y-74825195D01*
X168889057Y-74898883D01*
X168625808Y-75161673D01*
X168483162Y-75505201D01*
X168482838Y-75877167D01*
X168624883Y-76220943D01*
X168887673Y-76484192D01*
X169231201Y-76626838D01*
X169278077Y-76626879D01*
X171420599Y-78769401D01*
X171604353Y-78892181D01*
X171598559Y-78895910D01*
X171453569Y-79108110D01*
X171450919Y-79121197D01*
X171314090Y-78908559D01*
X171101890Y-78763569D01*
X170850000Y-78712560D01*
X169350000Y-78712560D01*
X169114683Y-78756838D01*
X168898559Y-78895910D01*
X168887255Y-78912453D01*
X168497401Y-78522599D01*
X168250839Y-78357852D01*
X168089507Y-78325761D01*
X168014090Y-78208559D01*
X167801890Y-78063569D01*
X167550000Y-78012560D01*
X165650000Y-78012560D01*
X165414683Y-78056838D01*
X165362331Y-78090526D01*
X165286799Y-78059162D01*
X164914833Y-78058838D01*
X164571057Y-78200883D01*
X164307808Y-78463673D01*
X164165162Y-78807201D01*
X164165027Y-78962560D01*
X162650000Y-78962560D01*
X162414683Y-79006838D01*
X162198559Y-79145910D01*
X162127437Y-79250000D01*
X161544000Y-79250000D01*
X161253160Y-79307852D01*
X161221600Y-79328940D01*
X161104833Y-79328838D01*
X160761057Y-79470883D01*
X160497808Y-79733673D01*
X160355162Y-80077201D01*
X160354838Y-80449167D01*
X160496883Y-80792943D01*
X160759673Y-81056192D01*
X161103201Y-81198838D01*
X161475167Y-81199162D01*
X161818943Y-81057117D01*
X162082192Y-80794327D01*
X162092294Y-80770000D01*
X162127069Y-80770000D01*
X162185910Y-80861441D01*
X162398110Y-81006431D01*
X162650000Y-81057440D01*
X164550000Y-81057440D01*
X164785317Y-81013162D01*
X165001441Y-80874090D01*
X165088064Y-80747314D01*
X165173750Y-80833000D01*
X166473000Y-80833000D01*
X166473000Y-80813000D01*
X166727000Y-80813000D01*
X166727000Y-80833000D01*
X168026250Y-80833000D01*
X168185000Y-80674250D01*
X168185000Y-80433690D01*
X168132753Y-80307555D01*
X168372599Y-80547401D01*
X168619161Y-80712148D01*
X168715997Y-80731410D01*
X168746838Y-80895317D01*
X168885910Y-81111441D01*
X169098110Y-81256431D01*
X169350000Y-81307440D01*
X170850000Y-81307440D01*
X171085317Y-81263162D01*
X171301441Y-81124090D01*
X171446431Y-80911890D01*
X171449081Y-80898803D01*
X171585910Y-81111441D01*
X171785028Y-81247492D01*
X171784838Y-81465167D01*
X171926883Y-81808943D01*
X172189673Y-82072192D01*
X172533201Y-82214838D01*
X172905167Y-82215162D01*
X173248943Y-82073117D01*
X173512192Y-81810327D01*
X173654838Y-81466799D01*
X173654994Y-81287684D01*
X173696201Y-81279930D01*
X173704883Y-81300943D01*
X173967673Y-81564192D01*
X174200961Y-81661062D01*
X173969057Y-81756883D01*
X173705808Y-82019673D01*
X173563162Y-82363201D01*
X173563121Y-82410077D01*
X172405198Y-83568000D01*
X167132000Y-83568000D01*
X166841161Y-83625852D01*
X166594599Y-83790599D01*
X165607579Y-84777619D01*
X165100000Y-84676655D01*
X164526511Y-84790729D01*
X164040330Y-85115585D01*
X163830000Y-85430366D01*
X163619670Y-85115585D01*
X163133489Y-84790729D01*
X162560000Y-84676655D01*
X161986511Y-84790729D01*
X161500330Y-85115585D01*
X161290000Y-85430366D01*
X161079670Y-85115585D01*
X160593489Y-84790729D01*
X160020000Y-84676655D01*
X159446511Y-84790729D01*
X158960330Y-85115585D01*
X158950757Y-85129913D01*
X158946762Y-85108683D01*
X158807690Y-84892559D01*
X158595490Y-84747569D01*
X158343600Y-84696560D01*
X156616400Y-84696560D01*
X156381083Y-84740838D01*
X156164959Y-84879910D01*
X156019969Y-85092110D01*
X155968960Y-85344000D01*
X155968960Y-86858144D01*
X155515011Y-86767848D01*
X154925830Y-86374170D01*
X154532152Y-85784989D01*
X154380000Y-85020069D01*
X154380000Y-82943440D01*
X155956000Y-82943440D01*
X156191317Y-82899162D01*
X156407441Y-82760090D01*
X156552431Y-82547890D01*
X156603440Y-82296000D01*
X156603440Y-81010000D01*
X157302560Y-81010000D01*
X157302560Y-83010000D01*
X157346838Y-83245317D01*
X157485910Y-83461441D01*
X157698110Y-83606431D01*
X157950000Y-83657440D01*
X159550000Y-83657440D01*
X159785317Y-83613162D01*
X160001441Y-83474090D01*
X160146431Y-83261890D01*
X160197440Y-83010000D01*
X160197440Y-81245750D01*
X165015000Y-81245750D01*
X165015000Y-81486310D01*
X165111673Y-81719699D01*
X165290302Y-81898327D01*
X165523691Y-81995000D01*
X166314250Y-81995000D01*
X166473000Y-81836250D01*
X166473000Y-81087000D01*
X166727000Y-81087000D01*
X166727000Y-81836250D01*
X166885750Y-81995000D01*
X167676309Y-81995000D01*
X167909698Y-81898327D01*
X168088327Y-81719699D01*
X168185000Y-81486310D01*
X168185000Y-81245750D01*
X168026250Y-81087000D01*
X166727000Y-81087000D01*
X166473000Y-81087000D01*
X165173750Y-81087000D01*
X165015000Y-81245750D01*
X160197440Y-81245750D01*
X160197440Y-81010000D01*
X160153162Y-80774683D01*
X160014090Y-80558559D01*
X159801890Y-80413569D01*
X159550000Y-80362560D01*
X157950000Y-80362560D01*
X157714683Y-80406838D01*
X157498559Y-80545910D01*
X157353569Y-80758110D01*
X157302560Y-81010000D01*
X156603440Y-81010000D01*
X156603440Y-80264000D01*
X156559162Y-80028683D01*
X156420090Y-79812559D01*
X156257052Y-79701160D01*
X156346385Y-79604818D01*
X156545975Y-79122944D01*
X156426836Y-78867000D01*
X155067000Y-78867000D01*
X155067000Y-78887000D01*
X154813000Y-78887000D01*
X154813000Y-78867000D01*
X154793000Y-78867000D01*
X154793000Y-78613000D01*
X154813000Y-78613000D01*
X154813000Y-77252633D01*
X155067000Y-77252633D01*
X155067000Y-78613000D01*
X156426836Y-78613000D01*
X156545975Y-78357056D01*
X156520583Y-78295750D01*
X157315000Y-78295750D01*
X157315000Y-79136309D01*
X157411673Y-79369698D01*
X157590301Y-79548327D01*
X157823690Y-79645000D01*
X158464250Y-79645000D01*
X158623000Y-79486250D01*
X158623000Y-78137000D01*
X158877000Y-78137000D01*
X158877000Y-79486250D01*
X159035750Y-79645000D01*
X159676310Y-79645000D01*
X159909699Y-79548327D01*
X160088327Y-79369698D01*
X160185000Y-79136309D01*
X160185000Y-78295750D01*
X160026250Y-78137000D01*
X158877000Y-78137000D01*
X158623000Y-78137000D01*
X157473750Y-78137000D01*
X157315000Y-78295750D01*
X156520583Y-78295750D01*
X156346385Y-77875182D01*
X155908379Y-77402812D01*
X155322946Y-77134017D01*
X155067000Y-77252633D01*
X154813000Y-77252633D01*
X154557054Y-77134017D01*
X154380000Y-77215309D01*
X154380000Y-76883691D01*
X157315000Y-76883691D01*
X157315000Y-77724250D01*
X157473750Y-77883000D01*
X158623000Y-77883000D01*
X158623000Y-76533750D01*
X158877000Y-76533750D01*
X158877000Y-77883000D01*
X160026250Y-77883000D01*
X160185000Y-77724250D01*
X160185000Y-76883691D01*
X160088327Y-76650302D01*
X159909699Y-76471673D01*
X159676310Y-76375000D01*
X159035750Y-76375000D01*
X158877000Y-76533750D01*
X158623000Y-76533750D01*
X158464250Y-76375000D01*
X157823690Y-76375000D01*
X157590301Y-76471673D01*
X157411673Y-76650302D01*
X157315000Y-76883691D01*
X154380000Y-76883691D01*
X154380000Y-74999931D01*
X154532152Y-74235011D01*
X154725429Y-73945750D01*
X155981400Y-73945750D01*
X155981400Y-74802309D01*
X156078073Y-75035698D01*
X156256701Y-75214327D01*
X156490090Y-75311000D01*
X157194250Y-75311000D01*
X157353000Y-75152250D01*
X157353000Y-73787000D01*
X156140150Y-73787000D01*
X155981400Y-73945750D01*
X154725429Y-73945750D01*
X154925830Y-73645830D01*
X155515011Y-73252152D01*
X155981400Y-73159382D01*
X155981400Y-73374250D01*
X155981400Y-73374250D01*
G37*
X155981400Y-73374250D02*
X156140150Y-73533000D01*
X157353000Y-73533000D01*
X157353000Y-73513000D01*
X157607000Y-73513000D01*
X157607000Y-73533000D01*
X157627000Y-73533000D01*
X157627000Y-73787000D01*
X157607000Y-73787000D01*
X157607000Y-75152250D01*
X157765750Y-75311000D01*
X158469910Y-75311000D01*
X158703299Y-75214327D01*
X158881927Y-75035698D01*
X158945500Y-74882220D01*
X158960330Y-74904415D01*
X159446511Y-75229271D01*
X160020000Y-75343345D01*
X160593489Y-75229271D01*
X161079670Y-74904415D01*
X161290000Y-74589634D01*
X161500330Y-74904415D01*
X161986511Y-75229271D01*
X162560000Y-75343345D01*
X163133489Y-75229271D01*
X163619670Y-74904415D01*
X163830000Y-74589634D01*
X164040330Y-74904415D01*
X164526511Y-75229271D01*
X165100000Y-75343345D01*
X165673489Y-75229271D01*
X166159670Y-74904415D01*
X166370000Y-74589634D01*
X166580330Y-74904415D01*
X167066511Y-75229271D01*
X167640000Y-75343345D01*
X168213489Y-75229271D01*
X168699670Y-74904415D01*
X168910000Y-74589634D01*
X169067397Y-74825195D01*
X168889057Y-74898883D01*
X168625808Y-75161673D01*
X168483162Y-75505201D01*
X168482838Y-75877167D01*
X168624883Y-76220943D01*
X168887673Y-76484192D01*
X169231201Y-76626838D01*
X169278077Y-76626879D01*
X171420599Y-78769401D01*
X171604353Y-78892181D01*
X171598559Y-78895910D01*
X171453569Y-79108110D01*
X171450919Y-79121197D01*
X171314090Y-78908559D01*
X171101890Y-78763569D01*
X170850000Y-78712560D01*
X169350000Y-78712560D01*
X169114683Y-78756838D01*
X168898559Y-78895910D01*
X168887255Y-78912453D01*
X168497401Y-78522599D01*
X168250839Y-78357852D01*
X168089507Y-78325761D01*
X168014090Y-78208559D01*
X167801890Y-78063569D01*
X167550000Y-78012560D01*
X165650000Y-78012560D01*
X165414683Y-78056838D01*
X165362331Y-78090526D01*
X165286799Y-78059162D01*
X164914833Y-78058838D01*
X164571057Y-78200883D01*
X164307808Y-78463673D01*
X164165162Y-78807201D01*
X164165027Y-78962560D01*
X162650000Y-78962560D01*
X162414683Y-79006838D01*
X162198559Y-79145910D01*
X162127437Y-79250000D01*
X161544000Y-79250000D01*
X161253160Y-79307852D01*
X161221600Y-79328940D01*
X161104833Y-79328838D01*
X160761057Y-79470883D01*
X160497808Y-79733673D01*
X160355162Y-80077201D01*
X160354838Y-80449167D01*
X160496883Y-80792943D01*
X160759673Y-81056192D01*
X161103201Y-81198838D01*
X161475167Y-81199162D01*
X161818943Y-81057117D01*
X162082192Y-80794327D01*
X162092294Y-80770000D01*
X162127069Y-80770000D01*
X162185910Y-80861441D01*
X162398110Y-81006431D01*
X162650000Y-81057440D01*
X164550000Y-81057440D01*
X164785317Y-81013162D01*
X165001441Y-80874090D01*
X165088064Y-80747314D01*
X165173750Y-80833000D01*
X166473000Y-80833000D01*
X166473000Y-80813000D01*
X166727000Y-80813000D01*
X166727000Y-80833000D01*
X168026250Y-80833000D01*
X168185000Y-80674250D01*
X168185000Y-80433690D01*
X168132753Y-80307555D01*
X168372599Y-80547401D01*
X168619161Y-80712148D01*
X168715997Y-80731410D01*
X168746838Y-80895317D01*
X168885910Y-81111441D01*
X169098110Y-81256431D01*
X169350000Y-81307440D01*
X170850000Y-81307440D01*
X171085317Y-81263162D01*
X171301441Y-81124090D01*
X171446431Y-80911890D01*
X171449081Y-80898803D01*
X171585910Y-81111441D01*
X171785028Y-81247492D01*
X171784838Y-81465167D01*
X171926883Y-81808943D01*
X172189673Y-82072192D01*
X172533201Y-82214838D01*
X172905167Y-82215162D01*
X173248943Y-82073117D01*
X173512192Y-81810327D01*
X173654838Y-81466799D01*
X173654994Y-81287684D01*
X173696201Y-81279930D01*
X173704883Y-81300943D01*
X173967673Y-81564192D01*
X174200961Y-81661062D01*
X173969057Y-81756883D01*
X173705808Y-82019673D01*
X173563162Y-82363201D01*
X173563121Y-82410077D01*
X172405198Y-83568000D01*
X167132000Y-83568000D01*
X166841161Y-83625852D01*
X166594599Y-83790599D01*
X165607579Y-84777619D01*
X165100000Y-84676655D01*
X164526511Y-84790729D01*
X164040330Y-85115585D01*
X163830000Y-85430366D01*
X163619670Y-85115585D01*
X163133489Y-84790729D01*
X162560000Y-84676655D01*
X161986511Y-84790729D01*
X161500330Y-85115585D01*
X161290000Y-85430366D01*
X161079670Y-85115585D01*
X160593489Y-84790729D01*
X160020000Y-84676655D01*
X159446511Y-84790729D01*
X158960330Y-85115585D01*
X158950757Y-85129913D01*
X158946762Y-85108683D01*
X158807690Y-84892559D01*
X158595490Y-84747569D01*
X158343600Y-84696560D01*
X156616400Y-84696560D01*
X156381083Y-84740838D01*
X156164959Y-84879910D01*
X156019969Y-85092110D01*
X155968960Y-85344000D01*
X155968960Y-86858144D01*
X155515011Y-86767848D01*
X154925830Y-86374170D01*
X154532152Y-85784989D01*
X154380000Y-85020069D01*
X154380000Y-82943440D01*
X155956000Y-82943440D01*
X156191317Y-82899162D01*
X156407441Y-82760090D01*
X156552431Y-82547890D01*
X156603440Y-82296000D01*
X156603440Y-81010000D01*
X157302560Y-81010000D01*
X157302560Y-83010000D01*
X157346838Y-83245317D01*
X157485910Y-83461441D01*
X157698110Y-83606431D01*
X157950000Y-83657440D01*
X159550000Y-83657440D01*
X159785317Y-83613162D01*
X160001441Y-83474090D01*
X160146431Y-83261890D01*
X160197440Y-83010000D01*
X160197440Y-81245750D01*
X165015000Y-81245750D01*
X165015000Y-81486310D01*
X165111673Y-81719699D01*
X165290302Y-81898327D01*
X165523691Y-81995000D01*
X166314250Y-81995000D01*
X166473000Y-81836250D01*
X166473000Y-81087000D01*
X166727000Y-81087000D01*
X166727000Y-81836250D01*
X166885750Y-81995000D01*
X167676309Y-81995000D01*
X167909698Y-81898327D01*
X168088327Y-81719699D01*
X168185000Y-81486310D01*
X168185000Y-81245750D01*
X168026250Y-81087000D01*
X166727000Y-81087000D01*
X166473000Y-81087000D01*
X165173750Y-81087000D01*
X165015000Y-81245750D01*
X160197440Y-81245750D01*
X160197440Y-81010000D01*
X160153162Y-80774683D01*
X160014090Y-80558559D01*
X159801890Y-80413569D01*
X159550000Y-80362560D01*
X157950000Y-80362560D01*
X157714683Y-80406838D01*
X157498559Y-80545910D01*
X157353569Y-80758110D01*
X157302560Y-81010000D01*
X156603440Y-81010000D01*
X156603440Y-80264000D01*
X156559162Y-80028683D01*
X156420090Y-79812559D01*
X156257052Y-79701160D01*
X156346385Y-79604818D01*
X156545975Y-79122944D01*
X156426836Y-78867000D01*
X155067000Y-78867000D01*
X155067000Y-78887000D01*
X154813000Y-78887000D01*
X154813000Y-78867000D01*
X154793000Y-78867000D01*
X154793000Y-78613000D01*
X154813000Y-78613000D01*
X154813000Y-77252633D01*
X155067000Y-77252633D01*
X155067000Y-78613000D01*
X156426836Y-78613000D01*
X156545975Y-78357056D01*
X156520583Y-78295750D01*
X157315000Y-78295750D01*
X157315000Y-79136309D01*
X157411673Y-79369698D01*
X157590301Y-79548327D01*
X157823690Y-79645000D01*
X158464250Y-79645000D01*
X158623000Y-79486250D01*
X158623000Y-78137000D01*
X158877000Y-78137000D01*
X158877000Y-79486250D01*
X159035750Y-79645000D01*
X159676310Y-79645000D01*
X159909699Y-79548327D01*
X160088327Y-79369698D01*
X160185000Y-79136309D01*
X160185000Y-78295750D01*
X160026250Y-78137000D01*
X158877000Y-78137000D01*
X158623000Y-78137000D01*
X157473750Y-78137000D01*
X157315000Y-78295750D01*
X156520583Y-78295750D01*
X156346385Y-77875182D01*
X155908379Y-77402812D01*
X155322946Y-77134017D01*
X155067000Y-77252633D01*
X154813000Y-77252633D01*
X154557054Y-77134017D01*
X154380000Y-77215309D01*
X154380000Y-76883691D01*
X157315000Y-76883691D01*
X157315000Y-77724250D01*
X157473750Y-77883000D01*
X158623000Y-77883000D01*
X158623000Y-76533750D01*
X158877000Y-76533750D01*
X158877000Y-77883000D01*
X160026250Y-77883000D01*
X160185000Y-77724250D01*
X160185000Y-76883691D01*
X160088327Y-76650302D01*
X159909699Y-76471673D01*
X159676310Y-76375000D01*
X159035750Y-76375000D01*
X158877000Y-76533750D01*
X158623000Y-76533750D01*
X158464250Y-76375000D01*
X157823690Y-76375000D01*
X157590301Y-76471673D01*
X157411673Y-76650302D01*
X157315000Y-76883691D01*
X154380000Y-76883691D01*
X154380000Y-74999931D01*
X154532152Y-74235011D01*
X154725429Y-73945750D01*
X155981400Y-73945750D01*
X155981400Y-74802309D01*
X156078073Y-75035698D01*
X156256701Y-75214327D01*
X156490090Y-75311000D01*
X157194250Y-75311000D01*
X157353000Y-75152250D01*
X157353000Y-73787000D01*
X156140150Y-73787000D01*
X155981400Y-73945750D01*
X154725429Y-73945750D01*
X154925830Y-73645830D01*
X155515011Y-73252152D01*
X155981400Y-73159382D01*
X155981400Y-73374250D01*
G36*
X177260638Y-73124560D02*
X176716000Y-73124560D01*
X176480683Y-73168838D01*
X176264559Y-73307910D01*
X176119569Y-73520110D01*
X176068560Y-73772000D01*
X176068560Y-75072000D01*
X176112838Y-75307317D01*
X176251910Y-75523441D01*
X176464110Y-75668431D01*
X176716000Y-75719440D01*
X178216000Y-75719440D01*
X178451317Y-75675162D01*
X178667441Y-75536090D01*
X178812431Y-75323890D01*
X178815081Y-75310803D01*
X178951910Y-75523441D01*
X179164110Y-75668431D01*
X179406000Y-75717415D01*
X179406000Y-76306743D01*
X179271558Y-76396574D01*
X179266762Y-76371083D01*
X179127690Y-76154959D01*
X178915490Y-76009969D01*
X178663600Y-75958960D01*
X176936400Y-75958960D01*
X176701083Y-76003238D01*
X176484959Y-76142310D01*
X176339969Y-76354510D01*
X176288960Y-76606400D01*
X176288960Y-78333600D01*
X176333238Y-78568917D01*
X176472310Y-78785041D01*
X176684510Y-78930031D01*
X176728131Y-78938864D01*
X176710971Y-78950330D01*
X176386115Y-79436511D01*
X176282454Y-79957652D01*
X174019401Y-77694599D01*
X173772839Y-77529852D01*
X173482000Y-77472000D01*
X172272802Y-77472000D01*
X170353122Y-75552320D01*
X170353162Y-75506833D01*
X170277590Y-75323933D01*
X170753489Y-75229271D01*
X171239670Y-74904415D01*
X171450000Y-74589634D01*
X171660330Y-74904415D01*
X172146511Y-75229271D01*
X172720000Y-75343345D01*
X173293489Y-75229271D01*
X173779670Y-74904415D01*
X174104526Y-74418234D01*
X174218600Y-73844745D01*
X174218600Y-73475255D01*
X174143957Y-73100000D01*
X177285198Y-73100000D01*
X177260638Y-73124560D01*
X177260638Y-73124560D01*
G37*
X177260638Y-73124560D02*
X176716000Y-73124560D01*
X176480683Y-73168838D01*
X176264559Y-73307910D01*
X176119569Y-73520110D01*
X176068560Y-73772000D01*
X176068560Y-75072000D01*
X176112838Y-75307317D01*
X176251910Y-75523441D01*
X176464110Y-75668431D01*
X176716000Y-75719440D01*
X178216000Y-75719440D01*
X178451317Y-75675162D01*
X178667441Y-75536090D01*
X178812431Y-75323890D01*
X178815081Y-75310803D01*
X178951910Y-75523441D01*
X179164110Y-75668431D01*
X179406000Y-75717415D01*
X179406000Y-76306743D01*
X179271558Y-76396574D01*
X179266762Y-76371083D01*
X179127690Y-76154959D01*
X178915490Y-76009969D01*
X178663600Y-75958960D01*
X176936400Y-75958960D01*
X176701083Y-76003238D01*
X176484959Y-76142310D01*
X176339969Y-76354510D01*
X176288960Y-76606400D01*
X176288960Y-78333600D01*
X176333238Y-78568917D01*
X176472310Y-78785041D01*
X176684510Y-78930031D01*
X176728131Y-78938864D01*
X176710971Y-78950330D01*
X176386115Y-79436511D01*
X176282454Y-79957652D01*
X174019401Y-77694599D01*
X173772839Y-77529852D01*
X173482000Y-77472000D01*
X172272802Y-77472000D01*
X170353122Y-75552320D01*
X170353162Y-75506833D01*
X170277590Y-75323933D01*
X170753489Y-75229271D01*
X171239670Y-74904415D01*
X171450000Y-74589634D01*
X171660330Y-74904415D01*
X172146511Y-75229271D01*
X172720000Y-75343345D01*
X173293489Y-75229271D01*
X173779670Y-74904415D01*
X174104526Y-74418234D01*
X174218600Y-73844745D01*
X174218600Y-73475255D01*
X174143957Y-73100000D01*
X177285198Y-73100000D01*
X177260638Y-73124560D01*
M02*
